<svg xmlns="http://www.w3.org/2000/svg" xmlns:xlink="http://www.w3.org/1999/xlink" contentStyleType="text/css" height="1296px" preserveAspectRatio="none" style="width:4221px;height:1296px;background:#FFFFFF;" version="1.1" viewBox="0 0 4221 1296" width="4221px" zoomAndPan="magnify"><defs/><g><!--class Client--><g id="elem_Client"><rect codeLine="5" fill="#F1F1F1" height="91.9531" id="Client" rx="2.5" ry="2.5" style="stroke:#181818;stroke-width:0.5;" width="787.4824" x="1508.53" y="56.47"/><ellipse cx="1871.0876" cy="77.9583" fill="#ADD1B2" rx="11" ry="11" style="stroke:#181818;stroke-width:1;"/><path d="M1873.5608,84.1013 Q1872.9797,84.4002 1872.3405,84.5496 Q1871.7014,84.699 1870.9958,84.699 Q1868.489,84.699 1867.1692,83.0471 Q1865.8493,81.3953 1865.8493,78.2742 Q1865.8493,75.1448 1867.1692,73.4929 Q1868.489,71.8411 1870.9958,71.8411 Q1871.7014,71.8411 1872.3488,71.9905 Q1872.9963,72.1399 1873.5608,72.4388 L1873.5608,75.1614 Q1872.9299,74.5804 1872.3364,74.3106 Q1871.7429,74.0408 1871.112,74.0408 Q1869.7673,74.0408 1869.0825,75.1075 Q1868.3977,76.1741 1868.3977,78.2742 Q1868.3977,80.366 1869.0825,81.4326 Q1869.7673,82.4993 1871.112,82.4993 Q1871.7429,82.4993 1872.3364,82.2295 Q1872.9299,81.9597 1873.5608,81.3787 Z " fill="#000000"/><text fill="#000000" font-family="sans-serif" font-size="14" lengthAdjust="spacing" textLength="53.8672" x="1891.5876" y="75.0052">&#171;struct&#187;</text><text fill="#000000" font-family="sans-serif" font-size="14" lengthAdjust="spacing" textLength="39.5049" x="1898.7688" y="91.4934">Client</text><line style="stroke:#181818;stroke-width:0.5;" x1="1509.53" x2="2295.0124" y1="99.4466" y2="99.4466"/><line style="stroke:#181818;stroke-width:0.5;" x1="1509.53" x2="2295.0124" y1="107.4466" y2="107.4466"/><rect fill="#F24D5C" height="6" style="stroke:#C82930;stroke-width:1;" width="6" x="1516.53" y="118.1907"/><text fill="#000000" font-family="sans-serif" font-size="14" lengthAdjust="spacing" textLength="761.4824" x="1528.53" y="124.9817">async setup_connection(stream: TcpStream, srej: u8,file_path: String,drop_probability: f32, flip_probability: f32)</text><rect fill="#F24D5C" height="6" style="stroke:#C82930;stroke-width:1;" width="6" x="1516.53" y="134.679"/><text fill="#000000" font-family="sans-serif" font-size="14" lengthAdjust="spacing" textLength="658.8135" x="1528.53" y="141.47">async send_file(tx: mpsc::Sender&lt;Vec&lt;u8&gt;&gt;, file_path: String) : Result&lt;&amp;'static str, &amp;'static str&gt;</text></g><!--class Server--><g id="elem_Server"><rect codeLine="10" fill="#F1F1F1" height="91.9531" id="Server" rx="2.5" ry="2.5" style="stroke:#181818;stroke-width:0.5;" width="1071.7344" x="910.4" y="314.62"/><ellipse cx="1415.0836" cy="336.1083" fill="#ADD1B2" rx="11" ry="11" style="stroke:#181818;stroke-width:1;"/><path d="M1417.5567,342.2513 Q1416.9757,342.5502 1416.3365,342.6996 Q1415.6974,342.849 1414.9918,342.849 Q1412.485,342.849 1411.1651,341.1971 Q1409.8453,339.5453 1409.8453,336.4242 Q1409.8453,333.2948 1411.1651,331.6429 Q1412.485,329.9911 1414.9918,329.9911 Q1415.6974,329.9911 1416.3448,330.1405 Q1416.9923,330.2899 1417.5567,330.5888 L1417.5567,333.3114 Q1416.9259,332.7304 1416.3324,332.4606 Q1415.7389,332.1908 1415.108,332.1908 Q1413.7633,332.1908 1413.0785,333.2575 Q1412.3937,334.3241 1412.3937,336.4242 Q1412.3937,338.516 1413.0785,339.5826 Q1413.7633,340.6493 1415.108,340.6493 Q1415.7389,340.6493 1416.3324,340.3795 Q1416.9259,340.1097 1417.5567,339.5287 Z " fill="#000000"/><text fill="#000000" font-family="sans-serif" font-size="14" lengthAdjust="spacing" textLength="53.8672" x="1435.5836" y="333.1552">&#171;struct&#187;</text><text fill="#000000" font-family="sans-serif" font-size="14" lengthAdjust="spacing" textLength="41.8428" x="1441.5958" y="349.6434">Server</text><line style="stroke:#181818;stroke-width:0.5;" x1="911.4" x2="1981.1344" y1="357.5966" y2="357.5966"/><line style="stroke:#181818;stroke-width:0.5;" x1="911.4" x2="1981.1344" y1="365.5966" y2="365.5966"/><rect fill="#F24D5C" height="6" style="stroke:#C82930;stroke-width:1;" width="6" x="918.4" y="376.3407"/><text fill="#000000" font-family="sans-serif" font-size="14" lengthAdjust="spacing" textLength="583.4609" x="930.4" y="383.1317">async handle_client(stream: TcpStream, addr: SocketAddr) : Result&lt;bool, &amp;'static str&gt;</text><rect fill="#F24D5C" height="6" style="stroke:#C82930;stroke-width:1;" width="6" x="918.4" y="392.829"/><text fill="#000000" font-family="sans-serif" font-size="14" lengthAdjust="spacing" textLength="1045.7344" x="930.4" y="399.62">async assembler(mut assembler_rx: mpsc::Receiver&lt;Vec&lt;u8&gt;&gt;, write_tx: mpsc::Sender&lt;Vec&lt;u8&gt;&gt;, addr: SocketAddr) : Result&lt;&amp;'static str, &amp;'static str&gt;</text></g><!--class FrameType--><g id="elem_FrameType"><rect codeLine="25" fill="#F1F1F1" height="163.418" id="FrameType" rx="2.5" ry="2.5" style="stroke:#181818;stroke-width:0.5;" width="170.5391" x="7" y="996.02"/><ellipse cx="50.7662" cy="1012.02" fill="#EB937F" rx="11" ry="11" style="stroke:#181818;stroke-width:1;"/><path d="M54.3804,1018.52 L46.6607,1018.52 L46.6607,1006.1269 L54.3804,1006.1269 L54.3804,1008.2851 L49.1094,1008.2851 L49.1094,1010.958 L53.8824,1010.958 L53.8824,1013.1162 L49.1094,1013.1162 L49.1094,1016.3618 L54.3804,1016.3618 Z " fill="#000000"/><text fill="#000000" font-family="sans-serif" font-size="14" lengthAdjust="spacing" textLength="74.6143" x="71.1586" y="1017.311">FrameType</text><line style="stroke:#181818;stroke-width:0.5;" x1="8" x2="176.5391" y1="1028.02" y2="1028.02"/><text fill="#000000" font-family="sans-serif" font-size="14" lengthAdjust="spacing" textLength="110.4004" x="13" y="1045.5552">Information : u8</text><text fill="#000000" font-family="sans-serif" font-size="14" lengthAdjust="spacing" textLength="158.5391" x="13" y="1062.0434">ConnexionRequest : u8</text><text fill="#000000" font-family="sans-serif" font-size="14" lengthAdjust="spacing" textLength="122.0557" x="13" y="1078.5317">ReceiveReady : u8</text><text fill="#000000" font-family="sans-serif" font-size="14" lengthAdjust="spacing" textLength="71.9482" x="13" y="1095.02">Reject : u8</text><text fill="#000000" font-family="sans-serif" font-size="14" lengthAdjust="spacing" textLength="129.3018" x="13" y="1111.5083">ConnexionEnd : u8</text><text fill="#000000" font-family="sans-serif" font-size="14" lengthAdjust="spacing" textLength="38.5684" x="13" y="1127.9966">P : u8</text><text fill="#000000" font-family="sans-serif" font-size="14" lengthAdjust="spacing" textLength="94.165" x="13" y="1144.4848">Unknown : u8</text><line style="stroke:#181818;stroke-width:0.5;" x1="8" x2="176.5391" y1="1151.438" y2="1151.438"/></g><!--class FrameError--><g id="elem_FrameError"><rect codeLine="35" fill="#F1F1F1" height="163.418" id="FrameError" rx="2.5" ry="2.5" style="stroke:#181818;stroke-width:0.5;" width="204.6914" x="212.92" y="996.02"/><ellipse cx="273.4112" cy="1012.02" fill="#EB937F" rx="11" ry="11" style="stroke:#181818;stroke-width:1;"/><path d="M277.0255,1018.52 L269.3057,1018.52 L269.3057,1006.1269 L277.0255,1006.1269 L277.0255,1008.2851 L271.7545,1008.2851 L271.7545,1010.958 L276.5274,1010.958 L276.5274,1013.1162 L271.7545,1013.1162 L271.7545,1016.3618 L277.0255,1016.3618 Z " fill="#000000"/><text fill="#000000" font-family="sans-serif" font-size="14" lengthAdjust="spacing" textLength="75.209" x="293.9112" y="1017.311">FrameError</text><line style="stroke:#181818;stroke-width:0.5;" x1="213.92" x2="416.6114" y1="1028.02" y2="1028.02"/><text fill="#000000" font-family="sans-serif" font-size="14" lengthAdjust="spacing" textLength="150.0488" x="218.92" y="1045.5552">InvalidFrameType : u8</text><text fill="#000000" font-family="sans-serif" font-size="14" lengthAdjust="spacing" textLength="109.0195" x="218.92" y="1062.0434">InvalidFCS : u16</text><text fill="#000000" font-family="sans-serif" font-size="14" lengthAdjust="spacing" textLength="122.042" x="218.92" y="1078.5317">InvalidLength : u8</text><text fill="#000000" font-family="sans-serif" font-size="14" lengthAdjust="spacing" textLength="174.3027" x="218.92" y="1095.02">MissingBoundaryFlag : u8</text><text fill="#000000" font-family="sans-serif" font-size="14" lengthAdjust="spacing" textLength="192.6914" x="218.92" y="1111.5083">AbortSequenceReceived : u8</text><text fill="#000000" font-family="sans-serif" font-size="14" lengthAdjust="spacing" textLength="135.3105" x="218.92" y="1127.9966">DestuffingError : u8</text><text fill="#000000" font-family="sans-serif" font-size="14" lengthAdjust="spacing" textLength="117.2705" x="218.92" y="1144.4848">InvalidFrame : u8</text><line style="stroke:#181818;stroke-width:0.5;" x1="213.92" x2="416.6114" y1="1151.438" y2="1151.438"/></g><!--class Frame--><g id="elem_Frame"><rect codeLine="45" fill="#F1F1F1" height="223.8594" id="Frame" rx="2.5" ry="2.5" style="stroke:#181818;stroke-width:0.5;" width="396.4053" x="637.07" y="598.99"/><ellipse cx="804.089" cy="620.4783" fill="#ADD1B2" rx="11" ry="11" style="stroke:#181818;stroke-width:1;"/><path d="M806.5622,626.6213 Q805.9811,626.9202 805.342,627.0696 Q804.7028,627.219 803.9972,627.219 Q801.4904,627.219 800.1706,625.5671 Q798.8508,623.9153 798.8508,620.7942 Q798.8508,617.6648 800.1706,616.0129 Q801.4904,614.3611 803.9972,614.3611 Q804.7028,614.3611 805.3503,614.5105 Q805.9977,614.6599 806.5622,614.9588 L806.5622,617.6814 Q805.9313,617.1004 805.3378,616.8306 Q804.7443,616.5608 804.1135,616.5608 Q802.7687,616.5608 802.0839,617.6275 Q801.3991,618.6941 801.3991,620.7942 Q801.3991,622.886 802.0839,623.9526 Q802.7687,625.0193 804.1135,625.0193 Q804.7443,625.0193 805.3378,624.7495 Q805.9313,624.4797 806.5622,623.8987 Z " fill="#000000"/><text fill="#000000" font-family="sans-serif" font-size="14" lengthAdjust="spacing" textLength="53.8672" x="824.589" y="617.5252">&#171;struct&#187;</text><text fill="#000000" font-family="sans-serif" font-size="14" lengthAdjust="spacing" textLength="41.8359" x="830.6047" y="634.0134">Frame</text><line style="stroke:#181818;stroke-width:0.5;" x1="638.07" x2="1032.4753" y1="641.9666" y2="641.9666"/><ellipse cx="648.07" cy="655.7107" fill="none" rx="3" ry="3" style="stroke:#038048;stroke-width:1;"/><text fill="#000000" font-family="sans-serif" font-size="14" lengthAdjust="spacing" textLength="102.04" x="657.07" y="659.5017">frame_type: u8</text><ellipse cx="648.07" cy="672.199" fill="none" rx="3" ry="3" style="stroke:#038048;stroke-width:1;"/><text fill="#000000" font-family="sans-serif" font-size="14" lengthAdjust="spacing" textLength="56.8477" x="657.07" y="675.99">num: u8</text><ellipse cx="648.07" cy="688.6873" fill="none" rx="3" ry="3" style="stroke:#038048;stroke-width:1;"/><text fill="#000000" font-family="sans-serif" font-size="14" lengthAdjust="spacing" textLength="102.293" x="657.07" y="692.4783">data: Vec&lt;u8&gt;</text><ellipse cx="648.07" cy="705.1755" fill="none" rx="3" ry="3" style="stroke:#038048;stroke-width:1;"/><text fill="#000000" font-family="sans-serif" font-size="14" lengthAdjust="spacing" textLength="123.2246" x="657.07" y="708.9666">fcs: Option&lt;u16&gt;</text><ellipse cx="648.07" cy="721.6638" fill="none" rx="3" ry="3" style="stroke:#038048;stroke-width:1;"/><text fill="#000000" font-family="sans-serif" font-size="14" lengthAdjust="spacing" textLength="192.7188" x="657.07" y="725.4548">content: Option&lt;Vec&lt;u8&gt;&gt;</text><ellipse cx="648.07" cy="738.1521" fill="none" rx="3" ry="3" style="stroke:#038048;stroke-width:1;"/><text fill="#000000" font-family="sans-serif" font-size="14" lengthAdjust="spacing" textLength="247.6865" x="657.07" y="741.9431">content_stuffed: Option&lt;Vec&lt;u8&gt;&gt;</text><line style="stroke:#181818;stroke-width:0.5;" x1="638.07" x2="1032.4753" y1="748.8963" y2="748.8963"/><ellipse cx="648.07" cy="762.6404" fill="#84BE84" rx="3" ry="3" style="stroke:#038048;stroke-width:1;"/><text fill="#000000" font-family="sans-serif" font-size="14" lengthAdjust="spacing" textLength="370.4053" x="657.07" y="766.4314">new(frame_type: u8, num: u8, data: Vec&lt;u8&gt;) : Frame</text><ellipse cx="648.07" cy="779.1287" fill="#84BE84" rx="3" ry="3" style="stroke:#038048;stroke-width:1;"/><text fill="#000000" font-family="sans-serif" font-size="14" lengthAdjust="spacing" textLength="160.9316" x="657.07" y="782.9197">generate_content(&amp;self)</text><ellipse cx="648.07" cy="795.617" fill="#84BE84" rx="3" ry="3" style="stroke:#038048;stroke-width:1;"/><text fill="#000000" font-family="sans-serif" font-size="14" lengthAdjust="spacing" textLength="177.3447" x="657.07" y="799.408">to_bytes(&amp;self) : Vec&lt;u8&gt;</text><ellipse cx="648.07" cy="812.1052" fill="#84BE84" rx="3" ry="3" style="stroke:#038048;stroke-width:1;"/><text fill="#000000" font-family="sans-serif" font-size="14" lengthAdjust="spacing" textLength="369.7285" x="657.07" y="815.8963">from_bytes(bytes: &amp;[u8]) : Result&lt;Frame, FrameError&gt;</text></g><!--class TestsFrame--><g id="elem_TestsFrame"><rect codeLine="59" fill="#F1F1F1" height="190.8828" id="TestsFrame" rx="2.5" ry="2.5" style="stroke:#181818;stroke-width:0.5;" width="251.832" x="55.35" y="7"/><ellipse cx="127.8041" cy="28.4883" fill="#E3664A" rx="11" ry="11" style="stroke:#181818;stroke-width:1;"/><path d="M130.3808,28.7144 Q130.3808,27.7764 129.9574,27.2451 Q129.5341,26.7139 128.7953,26.7139 Q128.0565,26.7139 127.6374,27.2451 Q127.2182,27.7764 127.2182,28.7144 Q127.2182,29.6606 127.6374,30.1919 Q128.0565,30.7231 128.7953,30.7231 Q129.5341,30.7231 129.9574,30.1919 Q130.3808,29.6606 130.3808,28.7144 Z M131.9247,32.1177 L130.2978,32.1177 L130.2978,31.437 Q129.9823,31.877 129.5548,32.0803 Q129.1273,32.2837 128.5297,32.2837 Q127.1684,32.2837 126.3341,31.3042 Q125.4999,30.3247 125.4999,28.7144 Q125.4999,27.1123 126.33,26.137 Q127.1601,25.1616 128.5297,25.1616 Q129.119,25.1616 129.5673,25.365 Q130.0155,25.5684 130.2978,25.9585 L130.2978,25.6182 Q130.2978,24.4893 129.6793,23.875 Q129.0609,23.2607 127.9154,23.2607 Q126.1889,23.2607 125.0973,24.7798 Q124.0058,26.2988 124.0058,28.731 Q124.0058,31.2793 125.2675,32.7859 Q126.5292,34.2925 128.6293,34.2925 Q129.2934,34.2925 129.9159,34.0974 Q130.5385,33.9023 131.1112,33.5122 L131.8749,34.9731 Q131.2025,35.4297 130.4098,35.658 Q129.6171,35.8862 128.7123,35.8862 Q125.807,35.8862 124.0805,33.9521 Q122.3539,32.0181 122.3539,28.731 Q122.3539,25.5186 123.9062,23.5886 Q125.4584,21.6587 128.015,21.6587 Q129.8246,21.6587 130.8747,22.7502 Q131.9247,23.8418 131.9247,25.7261 Z " fill="#000000"/><text fill="#000000" font-family="sans-serif" font-size="14" lengthAdjust="spacing" textLength="98.4238" x="148.3041" y="25.5352">&#171;sub-module&#187;</text><text fill="#000000" font-family="sans-serif" font-size="14" lengthAdjust="spacing" textLength="32.5459" x="183.4579" y="42.0234">tests</text><line style="stroke:#181818;stroke-width:0.5;" x1="56.35" x2="306.182" y1="49.9766" y2="49.9766"/><line style="stroke:#181818;stroke-width:0.5;" x1="56.35" x2="306.182" y1="57.9766" y2="57.9766"/><rect fill="#F24D5C" height="6" style="stroke:#C82930;stroke-width:1;" width="6" x="63.35" y="68.7207"/><text fill="#000000" font-family="sans-serif" font-size="14" lengthAdjust="spacing" textLength="164.6846" x="75.35" y="75.5117">frame_abort_error_test()</text><rect fill="#F24D5C" height="6" style="stroke:#C82930;stroke-width:1;" width="6" x="63.35" y="85.209"/><text fill="#000000" font-family="sans-serif" font-size="14" lengthAdjust="spacing" textLength="171.7666" x="75.35" y="92">frame_length_error_test()</text><rect fill="#F24D5C" height="6" style="stroke:#C82930;stroke-width:1;" width="6" x="63.35" y="101.6973"/><text fill="#000000" font-family="sans-serif" font-size="14" lengthAdjust="spacing" textLength="161.3691" x="75.35" y="108.4883">frame_flags_error_test()</text><rect fill="#F24D5C" height="6" style="stroke:#C82930;stroke-width:1;" width="6" x="63.35" y="118.1855"/><text fill="#000000" font-family="sans-serif" font-size="14" lengthAdjust="spacing" textLength="157.7393" x="75.35" y="124.9766">frame_type_error_test()</text><rect fill="#F24D5C" height="6" style="stroke:#C82930;stroke-width:1;" width="6" x="63.35" y="134.6738"/><text fill="#000000" font-family="sans-serif" font-size="14" lengthAdjust="spacing" textLength="148.6475" x="75.35" y="141.4648">frame_crc_error_test()</text><rect fill="#F24D5C" height="6" style="stroke:#C82930;stroke-width:1;" width="6" x="63.35" y="151.1621"/><text fill="#000000" font-family="sans-serif" font-size="14" lengthAdjust="spacing" textLength="221.4707" x="75.35" y="157.9531">frame_get_bytes_structure_test()</text><rect fill="#F24D5C" height="6" style="stroke:#C82930;stroke-width:1;" width="6" x="63.35" y="167.6504"/><text fill="#000000" font-family="sans-serif" font-size="14" lengthAdjust="spacing" textLength="225.832" x="75.35" y="174.4414">bytes_to_frame_conversion_test()</text><rect fill="#F24D5C" height="6" style="stroke:#C82930;stroke-width:1;" width="6" x="63.35" y="184.1387"/><text fill="#000000" font-family="sans-serif" font-size="14" lengthAdjust="spacing" textLength="166.7354" x="75.35" y="190.9297">frame_empty_data_test()</text></g><!--class Window--><g id="elem_Window"><rect codeLine="69" fill="#F1F1F1" height="405.2305" id="Window" rx="2.5" ry="2.5" style="stroke:#181818;stroke-width:0.5;" width="405.4766" x="1243.53" y="508.3"/><ellipse cx="1415.0847" cy="529.7883" fill="#ADD1B2" rx="11" ry="11" style="stroke:#181818;stroke-width:1;"/><path d="M1417.5578,535.9313 Q1416.9768,536.2302 1416.3376,536.3796 Q1415.6985,536.529 1414.9929,536.529 Q1412.4861,536.529 1411.1662,534.8771 Q1409.8464,533.2253 1409.8464,530.1042 Q1409.8464,526.9748 1411.1662,525.3229 Q1412.4861,523.6711 1414.9929,523.6711 Q1415.6985,523.6711 1416.3459,523.8205 Q1416.9934,523.9699 1417.5578,524.2688 L1417.5578,526.9914 Q1416.927,526.4104 1416.3335,526.1406 Q1415.74,525.8708 1415.1091,525.8708 Q1413.7644,525.8708 1413.0796,526.9375 Q1412.3947,528.0041 1412.3947,530.1042 Q1412.3947,532.196 1413.0796,533.2626 Q1413.7644,534.3293 1415.1091,534.3293 Q1415.74,534.3293 1416.3335,534.0595 Q1416.927,533.7897 1417.5578,533.2087 Z " fill="#000000"/><text fill="#000000" font-family="sans-serif" font-size="14" lengthAdjust="spacing" textLength="53.8672" x="1435.5847" y="526.8352">&#171;struct&#187;</text><text fill="#000000" font-family="sans-serif" font-size="14" lengthAdjust="spacing" textLength="52.9102" x="1436.0632" y="543.3234">Window</text><line style="stroke:#181818;stroke-width:0.5;" x1="1244.53" x2="1648.0066" y1="551.2766" y2="551.2766"/><rect fill="none" height="6" style="stroke:#C82930;stroke-width:1;" width="6" x="1251.53" y="562.0207"/><text fill="#000000" font-family="sans-serif" font-size="14" lengthAdjust="spacing" textLength="231.2256" x="1263.53" y="568.8117">const NUMBERING_BITS: usize = 3</text><rect fill="none" height="6" style="stroke:#C82930;stroke-width:1;" width="6" x="1251.53" y="578.509"/><text fill="#000000" font-family="sans-serif" font-size="14" lengthAdjust="spacing" textLength="218.75" x="1263.53" y="585.3">const MAX_FRAME_NUM: u8 = 8</text><rect fill="none" height="6" style="stroke:#C82930;stroke-width:1;" width="6" x="1251.53" y="594.9973"/><text fill="#000000" font-family="sans-serif" font-size="14" lengthAdjust="spacing" textLength="219.9805" x="1263.53" y="601.7883">const FRAME_TIMEOUT: u64 = 3</text><rect fill="none" height="6" style="stroke:#C82930;stroke-width:1;" width="6" x="1251.53" y="611.4855"/><text fill="#000000" font-family="sans-serif" font-size="14" lengthAdjust="spacing" textLength="231.1572" x="1263.53" y="618.2766">const SIZE_GO_BACK_N: usize = 7</text><rect fill="none" height="6" style="stroke:#C82930;stroke-width:1;" width="6" x="1251.53" y="627.9738"/><text fill="#000000" font-family="sans-serif" font-size="14" lengthAdjust="spacing" textLength="177.6182" x="1263.53" y="634.7648">const SIZE_SREJ: usize = 4</text><ellipse cx="1254.53" cy="647.4621" fill="none" rx="3" ry="3" style="stroke:#038048;stroke-width:1;"/><text fill="#000000" font-family="sans-serif" font-size="14" lengthAdjust="spacing" textLength="187.2773" x="1263.53" y="651.2531">frames: VecDeque&lt;Frame&gt;</text><ellipse cx="1254.53" cy="663.9504" fill="none" rx="3" ry="3" style="stroke:#038048;stroke-width:1;"/><text fill="#000000" font-family="sans-serif" font-size="14" lengthAdjust="spacing" textLength="107.707" x="1263.53" y="667.7414">resend_all: bool</text><ellipse cx="1254.53" cy="680.4387" fill="none" rx="3" ry="3" style="stroke:#038048;stroke-width:1;"/><text fill="#000000" font-family="sans-serif" font-size="14" lengthAdjust="spacing" textLength="127.0664" x="1263.53" y="684.2297">is_connected: bool</text><ellipse cx="1254.53" cy="696.927" fill="none" rx="3" ry="3" style="stroke:#038048;stroke-width:1;"/><text fill="#000000" font-family="sans-serif" font-size="14" lengthAdjust="spacing" textLength="63.8408" x="1263.53" y="700.718">srej: bool</text><ellipse cx="1254.53" cy="713.4152" fill="none" rx="3" ry="3" style="stroke:#038048;stroke-width:1;"/><text fill="#000000" font-family="sans-serif" font-size="14" lengthAdjust="spacing" textLength="206.3291" x="1263.53" y="717.2063">sent_disconnect_request: bool</text><ellipse cx="1254.53" cy="729.9035" fill="none" rx="3" ry="3" style="stroke:#038048;stroke-width:1;"/><text fill="#000000" font-family="sans-serif" font-size="14" lengthAdjust="spacing" textLength="136.7529" x="1263.53" y="733.6945">condition: SafeCond</text><line style="stroke:#181818;stroke-width:0.5;" x1="1244.53" x2="1648.0066" y1="740.6477" y2="740.6477"/><ellipse cx="1254.53" cy="754.3918" fill="#84BE84" rx="3" ry="3" style="stroke:#038048;stroke-width:1;"/><text fill="#000000" font-family="sans-serif" font-size="14" lengthAdjust="spacing" textLength="74.2041" x="1263.53" y="758.1828">new() : Self</text><ellipse cx="1254.53" cy="770.8801" fill="#84BE84" rx="3" ry="3" style="stroke:#038048;stroke-width:1;"/><text fill="#000000" font-family="sans-serif" font-size="14" lengthAdjust="spacing" textLength="175.2871" x="1263.53" y="774.6711">get_max_size(&amp;self) usize</text><ellipse cx="1254.53" cy="787.3684" fill="#84BE84" rx="3" ry="3" style="stroke:#038048;stroke-width:1;"/><text fill="#000000" font-family="sans-serif" font-size="14" lengthAdjust="spacing" textLength="379.4766" x="1263.53" y="791.1594">push(&amp;mut self, frame: Frame) Result&lt;(), WindowError&gt;</text><ellipse cx="1254.53" cy="803.8566" fill="#84BE84" rx="3" ry="3" style="stroke:#038048;stroke-width:1;"/><text fill="#000000" font-family="sans-serif" font-size="14" lengthAdjust="spacing" textLength="255.8281" x="1263.53" y="807.6477">pop_front(&amp;mut self) Option&lt;Frame&gt;</text><ellipse cx="1254.53" cy="820.3449" fill="#84BE84" rx="3" ry="3" style="stroke:#038048;stroke-width:1;"/><text fill="#000000" font-family="sans-serif" font-size="14" lengthAdjust="spacing" textLength="117.5986" x="1263.53" y="824.1359">is_full(&amp;self) bool</text><ellipse cx="1254.53" cy="836.8332" fill="#84BE84" rx="3" ry="3" style="stroke:#038048;stroke-width:1;"/><text fill="#000000" font-family="sans-serif" font-size="14" lengthAdjust="spacing" textLength="200.4912" x="1263.53" y="840.6242">contains(&amp;self, num: u8) bool</text><ellipse cx="1254.53" cy="853.3215" fill="#84BE84" rx="3" ry="3" style="stroke:#038048;stroke-width:1;"/><text fill="#000000" font-family="sans-serif" font-size="14" lengthAdjust="spacing" textLength="137.9014" x="1263.53" y="857.1125">is_empty(&amp;self) bool</text><ellipse cx="1254.53" cy="869.8098" fill="#84BE84" rx="3" ry="3" style="stroke:#038048;stroke-width:1;"/><text fill="#000000" font-family="sans-serif" font-size="14" lengthAdjust="spacing" textLength="350.834" x="1263.53" y="873.6008">pop_until(&amp;mut self, num: u8, inclusive: bool) usize</text><ellipse cx="1254.53" cy="886.298" fill="#84BE84" rx="3" ry="3" style="stroke:#038048;stroke-width:1;"/><text fill="#000000" font-family="sans-serif" font-size="14" lengthAdjust="spacing" textLength="41.583" x="1263.53" y="890.0891">clear()</text><ellipse cx="1254.53" cy="902.7863" fill="#84BE84" rx="3" ry="3" style="stroke:#038048;stroke-width:1;"/><text fill="#000000" font-family="sans-serif" font-size="14" lengthAdjust="spacing" textLength="85.5313" x="1263.53" y="906.5773">default() Self</text></g><!--class TestsWindow--><g id="elem_TestsWindow"><rect codeLine="94" fill="#F1F1F1" height="124.9297" id="TestsWindow" rx="2.5" ry="2.5" style="stroke:#181818;stroke-width:0.5;" width="166.2939" x="342.12" y="39.98"/><ellipse cx="373.2616" cy="61.4683" fill="#E3664A" rx="11" ry="11" style="stroke:#181818;stroke-width:1;"/><path d="M375.8382,61.6944 Q375.8382,60.7564 375.4149,60.2251 Q374.9915,59.6939 374.2528,59.6939 Q373.514,59.6939 373.0948,60.2251 Q372.6756,60.7564 372.6756,61.6944 Q372.6756,62.6406 373.0948,63.1719 Q373.514,63.7031 374.2528,63.7031 Q374.9915,63.7031 375.4149,63.1719 Q375.8382,62.6406 375.8382,61.6944 Z M377.3822,65.0977 L375.7552,65.0977 L375.7552,64.417 Q375.4398,64.857 375.0123,65.0603 Q374.5848,65.2637 373.9871,65.2637 Q372.6258,65.2637 371.7916,64.2842 Q370.9574,63.3047 370.9574,61.6944 Q370.9574,60.0923 371.7874,59.117 Q372.6175,58.1416 373.9871,58.1416 Q374.5765,58.1416 375.0247,58.345 Q375.473,58.5484 375.7552,58.9385 L375.7552,58.5982 Q375.7552,57.4693 375.1368,56.855 Q374.5184,56.2407 373.3729,56.2407 Q371.6463,56.2407 370.5548,57.7598 Q369.4632,59.2788 369.4632,61.711 Q369.4632,64.2593 370.7249,65.7659 Q371.9867,67.2725 374.0867,67.2725 Q374.7508,67.2725 375.3734,67.0774 Q375.9959,66.8823 376.5687,66.4922 L377.3324,67.9531 Q376.66,68.4097 375.8673,68.638 Q375.0745,68.8662 374.1698,68.8662 Q371.2645,68.8662 369.5379,66.9321 Q367.8114,64.9981 367.8114,61.711 Q367.8114,58.4986 369.3636,56.5686 Q370.9158,54.6387 373.4725,54.6387 Q375.2821,54.6387 376.3321,55.7302 Q377.3822,56.8218 377.3822,58.7061 Z " fill="#000000"/><text fill="#000000" font-family="sans-serif" font-size="14" lengthAdjust="spacing" textLength="98.4238" x="390.8486" y="58.5152">&#171;sub-module&#187;</text><text fill="#000000" font-family="sans-serif" font-size="14" lengthAdjust="spacing" textLength="32.5459" x="426.0024" y="75.0034">tests</text><line style="stroke:#181818;stroke-width:0.5;" x1="343.12" x2="507.4139" y1="82.9566" y2="82.9566"/><line style="stroke:#181818;stroke-width:0.5;" x1="343.12" x2="507.4139" y1="90.9566" y2="90.9566"/><rect fill="#F24D5C" height="6" style="stroke:#C82930;stroke-width:1;" width="6" x="350.12" y="101.7007"/><text fill="#000000" font-family="sans-serif" font-size="14" lengthAdjust="spacing" textLength="140.2939" x="362.12" y="108.4917">test_push_and_pop()</text><rect fill="#F24D5C" height="6" style="stroke:#C82930;stroke-width:1;" width="6" x="350.12" y="118.189"/><text fill="#000000" font-family="sans-serif" font-size="14" lengthAdjust="spacing" textLength="122.165" x="362.12" y="124.98">test_window_full()</text><rect fill="#F24D5C" height="6" style="stroke:#C82930;stroke-width:1;" width="6" x="350.12" y="134.6773"/><text fill="#000000" font-family="sans-serif" font-size="14" lengthAdjust="spacing" textLength="98.8135" x="362.12" y="141.4683">test_contains()</text><rect fill="#F24D5C" height="6" style="stroke:#C82930;stroke-width:1;" width="6" x="350.12" y="151.1655"/><text fill="#000000" font-family="sans-serif" font-size="14" lengthAdjust="spacing" textLength="105.4443" x="362.12" y="157.9566">test_pop_until()</text></g><!--class WindowError--><g id="elem_WindowError"><rect codeLine="101" fill="#F1F1F1" height="64.4883" id="WindowError" rx="2.5" ry="2.5" style="stroke:#181818;stroke-width:0.5;" width="118.2832" x="1387.13" y="1045.49"/><ellipse cx="1402.13" cy="1061.49" fill="#EB937F" rx="11" ry="11" style="stroke:#181818;stroke-width:1;"/><path d="M1405.7443,1067.99 L1398.0245,1067.99 L1398.0245,1055.5969 L1405.7443,1055.5969 L1405.7443,1057.7551 L1400.4733,1057.7551 L1400.4733,1060.428 L1405.2462,1060.428 L1405.2462,1062.5862 L1400.4733,1062.5862 L1400.4733,1065.8318 L1405.7443,1065.8318 Z " fill="#000000"/><text fill="#000000" font-family="sans-serif" font-size="14" lengthAdjust="spacing" textLength="86.2832" x="1416.13" y="1066.781">WindowError</text><line style="stroke:#181818;stroke-width:0.5;" x1="1388.13" x2="1504.4132" y1="1077.49" y2="1077.49"/><text fill="#000000" font-family="sans-serif" font-size="14" lengthAdjust="spacing" textLength="55.1182" x="1393.13" y="1095.0252">Full : u8</text><line style="stroke:#181818;stroke-width:0.5;" x1="1388.13" x2="1504.4132" y1="1101.9783" y2="1101.9783"/></g><!--class CRC--><g id="elem_CRC"><rect codeLine="105" fill="#F1F1F1" height="91.9531" id="CRC" rx="2.5" ry="2.5" style="stroke:#181818;stroke-width:0.5;" width="230.2031" x="452.17" y="1031.76"/><ellipse cx="530.1783" cy="1053.2483" fill="#E3664A" rx="11" ry="11" style="stroke:#181818;stroke-width:1;"/><path d="M532.755,1053.4744 Q532.755,1052.5364 532.3316,1052.0051 Q531.9083,1051.4739 531.1695,1051.4739 Q530.4307,1051.4739 530.0116,1052.0051 Q529.5924,1052.5364 529.5924,1053.4744 Q529.5924,1054.4206 530.0116,1054.9519 Q530.4307,1055.4831 531.1695,1055.4831 Q531.9083,1055.4831 532.3316,1054.9519 Q532.755,1054.4206 532.755,1053.4744 Z M534.2989,1056.8777 L532.672,1056.8777 L532.672,1056.197 Q532.3565,1056.637 531.929,1056.8403 Q531.5015,1057.0437 530.9039,1057.0437 Q529.5426,1057.0437 528.7083,1056.0642 Q527.8741,1055.0847 527.8741,1053.4744 Q527.8741,1051.8723 528.7042,1050.897 Q529.5343,1049.9216 530.9039,1049.9216 Q531.4932,1049.9216 531.9415,1050.125 Q532.3897,1050.3284 532.672,1050.7185 L532.672,1050.3782 Q532.672,1049.2493 532.0535,1048.635 Q531.4351,1048.0207 530.2896,1048.0207 Q528.5631,1048.0207 527.4715,1049.5398 Q526.38,1051.0588 526.38,1053.491 Q526.38,1056.0393 527.6417,1057.5459 Q528.9034,1059.0525 531.0035,1059.0525 Q531.6676,1059.0525 532.2901,1058.8574 Q532.9127,1058.6623 533.4854,1058.2722 L534.2491,1059.7331 Q533.5767,1060.1897 532.784,1060.418 Q531.9913,1060.6462 531.0865,1060.6462 Q528.1812,1060.6462 526.4547,1058.7121 Q524.7281,1056.7781 524.7281,1053.491 Q524.7281,1050.2786 526.2804,1048.3486 Q527.8326,1046.4187 530.3892,1046.4187 Q532.1988,1046.4187 533.2489,1047.5102 Q534.2989,1048.6018 534.2989,1050.4861 Z " fill="#000000"/><text fill="#000000" font-family="sans-serif" font-size="14" lengthAdjust="spacing" textLength="65.6865" x="550.6783" y="1050.2952">&#171;module&#187;</text><text fill="#000000" font-family="sans-serif" font-size="14" lengthAdjust="spacing" textLength="28.2256" x="569.4088" y="1066.7834">CRC</text><line style="stroke:#181818;stroke-width:0.5;" x1="453.17" x2="681.3731" y1="1074.7366" y2="1074.7366"/><line style="stroke:#181818;stroke-width:0.5;" x1="453.17" x2="681.3731" y1="1082.7366" y2="1082.7366"/><ellipse cx="463.17" cy="1096.4807" fill="#84BE84" rx="3" ry="3" style="stroke:#038048;stroke-width:1;"/><text fill="#000000" font-family="sans-serif" font-size="14" lengthAdjust="spacing" textLength="180.8652" x="472.17" y="1100.2717">lookup_table() : [u16; 256]</text><ellipse cx="463.17" cy="1112.969" fill="#84BE84" rx="3" ry="3" style="stroke:#038048;stroke-width:1;"/><text fill="#000000" font-family="sans-serif" font-size="14" lengthAdjust="spacing" textLength="204.2031" x="472.17" y="1116.76">crc_16_ccitt(data: &amp;[u8]) : u16</text></g><!--class TestsCRC--><g id="elem_TestsCRC"><rect codeLine="110" fill="#F1F1F1" height="91.9531" id="TestsCRC" rx="2.5" ry="2.5" style="stroke:#181818;stroke-width:0.5;" width="194.7178" x="543.91" y="56.47"/><ellipse cx="587.8423" cy="77.9583" fill="#E3664A" rx="11" ry="11" style="stroke:#181818;stroke-width:1;"/><path d="M590.4189,78.1844 Q590.4189,77.2464 589.9956,76.7151 Q589.5723,76.1839 588.8335,76.1839 Q588.0947,76.1839 587.6755,76.7151 Q587.2563,77.2464 587.2563,78.1844 Q587.2563,79.1306 587.6755,79.6619 Q588.0947,80.1931 588.8335,80.1931 Q589.5723,80.1931 589.9956,79.6619 Q590.4189,79.1306 590.4189,78.1844 Z M591.9629,81.5877 L590.3359,81.5877 L590.3359,80.907 Q590.0205,81.347 589.593,81.5503 Q589.1655,81.7537 588.5679,81.7537 Q587.2065,81.7537 586.3723,80.7742 Q585.5381,79.7947 585.5381,78.1844 Q585.5381,76.5823 586.3682,75.607 Q587.1982,74.6316 588.5679,74.6316 Q589.1572,74.6316 589.6055,74.835 Q590.0537,75.0384 590.3359,75.4285 L590.3359,75.0882 Q590.3359,73.9593 589.7175,73.345 Q589.0991,72.7307 587.9536,72.7307 Q586.227,72.7307 585.1355,74.2498 Q584.0439,75.7688 584.0439,78.201 Q584.0439,80.7493 585.3057,82.2559 Q586.5674,83.7625 588.6675,83.7625 Q589.3315,83.7625 589.9541,83.5674 Q590.5767,83.3723 591.1494,82.9822 L591.9131,84.4431 Q591.2407,84.8997 590.448,85.128 Q589.6553,85.3562 588.7505,85.3562 Q585.8452,85.3562 584.1186,83.4221 Q582.3921,81.4881 582.3921,78.201 Q582.3921,74.9886 583.9443,73.0586 Q585.4966,71.1287 588.0532,71.1287 Q589.8628,71.1287 590.9128,72.2202 Q591.9629,73.3118 591.9629,75.1961 Z " fill="#000000"/><text fill="#000000" font-family="sans-serif" font-size="14" lengthAdjust="spacing" textLength="98.4238" x="608.2717" y="75.0052">&#171;sub-module&#187;</text><text fill="#000000" font-family="sans-serif" font-size="14" lengthAdjust="spacing" textLength="32.5459" x="643.4255" y="91.4934">tests</text><line style="stroke:#181818;stroke-width:0.5;" x1="544.91" x2="737.6278" y1="99.4466" y2="99.4466"/><line style="stroke:#181818;stroke-width:0.5;" x1="544.91" x2="737.6278" y1="107.4466" y2="107.4466"/><rect fill="#F24D5C" height="6" style="stroke:#C82930;stroke-width:1;" width="6" x="551.91" y="118.1907"/><text fill="#000000" font-family="sans-serif" font-size="14" lengthAdjust="spacing" textLength="168.7178" x="563.91" y="124.9817">crc_16_ccitt_string_test()</text><rect fill="#F24D5C" height="6" style="stroke:#C82930;stroke-width:1;" width="6" x="551.91" y="134.679"/><text fill="#000000" font-family="sans-serif" font-size="14" lengthAdjust="spacing" textLength="163.3857" x="563.91" y="141.47">crc_16_ccitt_array_test()</text></g><!--class IO--><g id="elem_IO"><rect codeLine="115" fill="#F1F1F1" height="141.418" id="IO" rx="2.5" ry="2.5" style="stroke:#181818;stroke-width:0.5;" width="1395.7031" x="2337.42" y="640.21"/><ellipse cx="2998.1783" cy="661.6983" fill="#E3664A" rx="11" ry="11" style="stroke:#181818;stroke-width:1;"/><path d="M3000.755,661.9244 Q3000.755,660.9864 3000.3316,660.4551 Q2999.9083,659.9239 2999.1695,659.9239 Q2998.4307,659.9239 2998.0116,660.4551 Q2997.5924,660.9864 2997.5924,661.9244 Q2997.5924,662.8706 2998.0116,663.4019 Q2998.4307,663.9331 2999.1695,663.9331 Q2999.9083,663.9331 3000.3316,663.4019 Q3000.755,662.8706 3000.755,661.9244 Z M3002.2989,665.3277 L3000.672,665.3277 L3000.672,664.647 Q3000.3565,665.087 2999.929,665.2903 Q2999.5015,665.4937 2998.9039,665.4937 Q2997.5426,665.4937 2996.7083,664.5142 Q2995.8741,663.5347 2995.8741,661.9244 Q2995.8741,660.3223 2996.7042,659.347 Q2997.5343,658.3716 2998.9039,658.3716 Q2999.4932,658.3716 2999.9415,658.575 Q3000.3897,658.7784 3000.672,659.1685 L3000.672,658.8282 Q3000.672,657.6993 3000.0535,657.085 Q2999.4351,656.4707 2998.2896,656.4707 Q2996.5631,656.4707 2995.4715,657.9898 Q2994.38,659.5088 2994.38,661.941 Q2994.38,664.4893 2995.6417,665.9959 Q2996.9034,667.5025 2999.0035,667.5025 Q2999.6676,667.5025 3000.2901,667.3074 Q3000.9127,667.1123 3001.4854,666.7222 L3002.2491,668.1831 Q3001.5767,668.6397 3000.784,668.868 Q2999.9913,669.0962 2999.0865,669.0962 Q2996.1812,669.0962 2994.4547,667.1621 Q2992.7281,665.2281 2992.7281,661.941 Q2992.7281,658.7286 2994.2804,656.7986 Q2995.8326,654.8687 2998.3892,654.8687 Q3000.1988,654.8687 3001.2489,655.9602 Q3002.2989,657.0518 3002.2989,658.9361 Z " fill="#000000"/><text fill="#000000" font-family="sans-serif" font-size="14" lengthAdjust="spacing" textLength="65.6865" x="3018.6783" y="658.7452">&#171;module&#187;</text><text fill="#000000" font-family="sans-serif" font-size="14" lengthAdjust="spacing" textLength="14.9092" x="3044.067" y="675.2334">IO</text><line style="stroke:#181818;stroke-width:0.5;" x1="2338.42" x2="3732.1231" y1="683.1866" y2="683.1866"/><line style="stroke:#181818;stroke-width:0.5;" x1="2338.42" x2="3732.1231" y1="691.1866" y2="691.1866"/><ellipse cx="2348.42" cy="704.9307" fill="#84BE84" rx="3" ry="3" style="stroke:#038048;stroke-width:1;"/><text fill="#000000" font-family="sans-serif" font-size="14" lengthAdjust="spacing" textLength="947.2148" x="2357.42" y="708.7217">connection_request(window: &amp;SafeWindow, connection_start: bool, srej: Option&lt;u8&gt;, tx: mpsc::Sender&lt;Vec&lt;u8&gt;&gt;, condition: &amp;SafeCond)</text><ellipse cx="2348.42" cy="721.419" fill="#84BE84" rx="3" ry="3" style="stroke:#038048;stroke-width:1;"/><text fill="#000000" font-family="sans-serif" font-size="14" lengthAdjust="spacing" textLength="1369.7031" x="2357.42" y="725.21">reader(stream: OwnedReadHalf, window: SafeWindow, writer_tx: Option&lt;mpsc::Sender&lt;Vec&lt;u8&gt;&gt;&gt;, assembler_tx: Option&lt;mpsc::Sender&lt;Vec&lt;u8&gt;&gt;&gt;) : JoinHandle&lt;Result&lt;&amp;'static str, &amp;'static str&gt;&gt;</text><ellipse cx="2348.42" cy="737.9073" fill="#84BE84" rx="3" ry="3" style="stroke:#038048;stroke-width:1;"/><text fill="#000000" font-family="sans-serif" font-size="14" lengthAdjust="spacing" textLength="758.2627" x="2357.42" y="741.6983">writer(stream: OwnedWriteHalf, rx: mpsc::Receiver&lt;Vec&lt;u8&gt;&gt;) : JoinHandle&lt;Result&lt;&amp;'static str, &amp;'static str&gt;&gt;</text><ellipse cx="2348.42" cy="754.3955" fill="#84BE84" rx="3" ry="3" style="stroke:#038048;stroke-width:1;"/><text fill="#000000" font-family="sans-serif" font-size="14" lengthAdjust="spacing" textLength="1334.5459" x="2357.42" y="758.1866">handle_reception(frame: Frame, safe_window: &amp;SafeWindow, writer_tx: Option&lt;&amp;mpsc::Sender&lt;Vec&lt;u8&gt;&gt;, assembler_tx: Option&lt;&amp;mpsc::Sender&lt;Vec&lt;u8&gt;&gt;, expected_info_num: &amp;mut u8): bool</text><ellipse cx="2348.42" cy="770.8838" fill="#84BE84" rx="3" ry="3" style="stroke:#038048;stroke-width:1;"/><text fill="#000000" font-family="sans-serif" font-size="14" lengthAdjust="spacing" textLength="591.3018" x="2357.42" y="774.6748">create_frame_timer(safe_window: SafeWindow, num: u8, tx: mpsc::Sender&lt;Vec&lt;u8&gt;&gt;)</text></g><!--class TestsIO--><g id="elem_TestsIO"><rect codeLine="123" fill="#F1F1F1" height="91.9531" id="TestsIO" rx="2.5" ry="2.5" style="stroke:#181818;stroke-width:0.5;" width="130.4238" x="116.06" y="314.62"/><ellipse cx="131.06" cy="336.1083" fill="#E3664A" rx="11" ry="11" style="stroke:#181818;stroke-width:1;"/><path d="M133.6367,336.3344 Q133.6367,335.3964 133.2133,334.8651 Q132.79,334.3339 132.0512,334.3339 Q131.3124,334.3339 130.8933,334.8651 Q130.4741,335.3964 130.4741,336.3344 Q130.4741,337.2806 130.8933,337.8119 Q131.3124,338.3431 132.0512,338.3431 Q132.79,338.3431 133.2133,337.8119 Q133.6367,337.2806 133.6367,336.3344 Z M135.1806,339.7377 L133.5537,339.7377 L133.5537,339.057 Q133.2382,339.497 132.8107,339.7003 Q132.3832,339.9037 131.7856,339.9037 Q130.4243,339.9037 129.59,338.9242 Q128.7558,337.9447 128.7558,336.3344 Q128.7558,334.7323 129.5859,333.757 Q130.416,332.7816 131.7856,332.7816 Q132.3749,332.7816 132.8232,332.985 Q133.2714,333.1884 133.5537,333.5785 L133.5537,333.2382 Q133.5537,332.1093 132.9352,331.495 Q132.3168,330.8807 131.1713,330.8807 Q129.4448,330.8807 128.3532,332.3998 Q127.2617,333.9188 127.2617,336.351 Q127.2617,338.8993 128.5234,340.4059 Q129.7851,341.9125 131.8852,341.9125 Q132.5493,341.9125 133.1718,341.7174 Q133.7944,341.5223 134.3671,341.1322 L135.1308,342.5931 Q134.4584,343.0497 133.6657,343.278 Q132.873,343.5062 131.9682,343.5062 Q129.0629,343.5062 127.3364,341.5721 Q125.6098,339.6381 125.6098,336.351 Q125.6098,333.1386 127.1621,331.2086 Q128.7143,329.2787 131.2709,329.2787 Q133.0805,329.2787 134.1306,330.3702 Q135.1806,331.4618 135.1806,333.3461 Z " fill="#000000"/><text fill="#000000" font-family="sans-serif" font-size="14" lengthAdjust="spacing" textLength="98.4238" x="145.06" y="333.1552">&#171;sub-module&#187;</text><text fill="#000000" font-family="sans-serif" font-size="14" lengthAdjust="spacing" textLength="32.5459" x="180.2138" y="349.6434">tests</text><line style="stroke:#181818;stroke-width:0.5;" x1="117.06" x2="245.4838" y1="357.5966" y2="357.5966"/><line style="stroke:#181818;stroke-width:0.5;" x1="117.06" x2="245.4838" y1="365.5966" y2="365.5966"/><rect fill="#F24D5C" height="6" style="stroke:#C82930;stroke-width:1;" width="6" x="124.06" y="376.3407"/><text fill="#000000" font-family="sans-serif" font-size="14" lengthAdjust="spacing" textLength="80.8418" x="136.06" y="383.1317">test_writer()</text><rect fill="#F24D5C" height="6" style="stroke:#C82930;stroke-width:1;" width="6" x="124.06" y="392.829"/><text fill="#000000" font-family="sans-serif" font-size="14" lengthAdjust="spacing" textLength="85.1143" x="136.06" y="399.62">test_reader()</text></g><!--class ByteStuffing--><g id="elem_ByteStuffing"><rect codeLine="128" fill="#F1F1F1" height="91.9531" id="ByteStuffing" rx="2.5" ry="2.5" style="stroke:#181818;stroke-width:0.5;" width="494.043" x="717.25" y="1031.76"/><ellipse cx="919.2075" cy="1053.2483" fill="#E3664A" rx="11" ry="11" style="stroke:#181818;stroke-width:1;"/><path d="M921.7842,1053.4744 Q921.7842,1052.5364 921.3608,1052.0051 Q920.9375,1051.4739 920.1987,1051.4739 Q919.46,1051.4739 919.0408,1052.0051 Q918.6216,1052.5364 918.6216,1053.4744 Q918.6216,1054.4206 919.0408,1054.9519 Q919.46,1055.4831 920.1987,1055.4831 Q920.9375,1055.4831 921.3608,1054.9519 Q921.7842,1054.4206 921.7842,1053.4744 Z M923.3281,1056.8777 L921.7012,1056.8777 L921.7012,1056.197 Q921.3857,1056.637 920.9583,1056.8403 Q920.5308,1057.0437 919.9331,1057.0437 Q918.5718,1057.0437 917.7375,1056.0642 Q916.9033,1055.0847 916.9033,1053.4744 Q916.9033,1051.8723 917.7334,1050.897 Q918.5635,1049.9216 919.9331,1049.9216 Q920.5225,1049.9216 920.9707,1050.125 Q921.4189,1050.3284 921.7012,1050.7185 L921.7012,1050.3782 Q921.7012,1049.2493 921.0828,1048.635 Q920.4644,1048.0207 919.3188,1048.0207 Q917.5923,1048.0207 916.5007,1049.5398 Q915.4092,1051.0588 915.4092,1053.491 Q915.4092,1056.0393 916.6709,1057.5459 Q917.9326,1059.0525 920.0327,1059.0525 Q920.6968,1059.0525 921.3193,1058.8574 Q921.9419,1058.6623 922.5146,1058.2722 L923.2783,1059.7331 Q922.606,1060.1897 921.8132,1060.418 Q921.0205,1060.6462 920.1157,1060.6462 Q917.2104,1060.6462 915.4839,1058.7121 Q913.7573,1056.7781 913.7573,1053.491 Q913.7573,1050.2786 915.3096,1048.3486 Q916.8618,1046.4187 919.4185,1046.4187 Q921.228,1046.4187 922.2781,1047.5102 Q923.3281,1048.6018 923.3281,1050.4861 Z " fill="#000000"/><text fill="#000000" font-family="sans-serif" font-size="14" lengthAdjust="spacing" textLength="65.6865" x="947.6782" y="1050.2952">&#171;module&#187;</text><text fill="#000000" font-family="sans-serif" font-size="14" lengthAdjust="spacing" textLength="81.6279" x="939.7075" y="1066.7834">ByteStuffing</text><line style="stroke:#181818;stroke-width:0.5;" x1="718.25" x2="1210.293" y1="1074.7366" y2="1074.7366"/><line style="stroke:#181818;stroke-width:0.5;" x1="718.25" x2="1210.293" y1="1082.7366" y2="1082.7366"/><ellipse cx="728.25" cy="1096.4807" fill="#84BE84" rx="3" ry="3" style="stroke:#038048;stroke-width:1;"/><text fill="#000000" font-family="sans-serif" font-size="14" lengthAdjust="spacing" textLength="303.3447" x="737.25" y="1100.2717">byte_stuffing(frame_bytes: &amp;[u8]) : Vec&lt;u8&gt;</text><ellipse cx="728.25" cy="1112.969" fill="#84BE84" rx="3" ry="3" style="stroke:#038048;stroke-width:1;"/><text fill="#000000" font-family="sans-serif" font-size="14" lengthAdjust="spacing" textLength="468.043" x="737.25" y="1116.76">byte_destuffing(frame_bytes: &amp;[u8]) : Result&lt;Vec&lt;u8&gt;, FrameError&gt;</text></g><!--class TestsByteStuffing--><g id="elem_TestsByteStuffing"><rect codeLine="133" fill="#F1F1F1" height="141.418" id="TestsByteStuffing" rx="2.5" ry="2.5" style="stroke:#181818;stroke-width:0.5;" width="221.583" x="281.48" y="289.89"/><ellipse cx="338.8096" cy="311.3783" fill="#E3664A" rx="11" ry="11" style="stroke:#181818;stroke-width:1;"/><path d="M341.3863,311.6044 Q341.3863,310.6664 340.9629,310.1351 Q340.5396,309.6039 339.8008,309.6039 Q339.062,309.6039 338.6428,310.1351 Q338.2237,310.6664 338.2237,311.6044 Q338.2237,312.5506 338.6428,313.0819 Q339.062,313.6131 339.8008,313.6131 Q340.5396,313.6131 340.9629,313.0819 Q341.3863,312.5506 341.3863,311.6044 Z M342.9302,315.0077 L341.3032,315.0077 L341.3032,314.327 Q340.9878,314.767 340.5603,314.9703 Q340.1328,315.1737 339.5352,315.1737 Q338.1738,315.1737 337.3396,314.1942 Q336.5054,313.2147 336.5054,311.6044 Q336.5054,310.0023 337.3355,309.027 Q338.1655,308.0516 339.5352,308.0516 Q340.1245,308.0516 340.5728,308.255 Q341.021,308.4584 341.3032,308.8485 L341.3032,308.5082 Q341.3032,307.3793 340.6848,306.765 Q340.0664,306.1507 338.9209,306.1507 Q337.1944,306.1507 336.1028,307.6698 Q335.0113,309.1888 335.0113,311.621 Q335.0113,314.1693 336.273,315.6759 Q337.5347,317.1825 339.6348,317.1825 Q340.2988,317.1825 340.9214,316.9874 Q341.544,316.7923 342.1167,316.4022 L342.8804,317.8631 Q342.208,318.3197 341.4153,318.548 Q340.6226,318.7762 339.7178,318.7762 Q336.8125,318.7762 335.086,316.8421 Q333.3594,314.9081 333.3594,311.621 Q333.3594,308.4086 334.9116,306.4786 Q336.4639,304.5487 339.0205,304.5487 Q340.8301,304.5487 341.8801,305.6402 Q342.9302,306.7318 342.9302,308.6161 Z " fill="#000000"/><text fill="#000000" font-family="sans-serif" font-size="14" lengthAdjust="spacing" textLength="98.4238" x="359.3096" y="308.4252">&#171;sub-module&#187;</text><text fill="#000000" font-family="sans-serif" font-size="14" lengthAdjust="spacing" textLength="32.5459" x="394.4634" y="324.9134">tests</text><line style="stroke:#181818;stroke-width:0.5;" x1="282.48" x2="502.063" y1="332.8666" y2="332.8666"/><line style="stroke:#181818;stroke-width:0.5;" x1="282.48" x2="502.063" y1="340.8666" y2="340.8666"/><rect fill="#F24D5C" height="6" style="stroke:#C82930;stroke-width:1;" width="6" x="289.48" y="351.6107"/><text fill="#000000" font-family="sans-serif" font-size="14" lengthAdjust="spacing" textLength="172.8809" x="301.48" y="358.4017">bit_stuffing_escape_test()</text><rect fill="#F24D5C" height="6" style="stroke:#C82930;stroke-width:1;" width="6" x="289.48" y="368.099"/><text fill="#000000" font-family="sans-serif" font-size="14" lengthAdjust="spacing" textLength="162.5381" x="301.48" y="374.89">bit_stuffing_abort_test()</text><rect fill="#F24D5C" height="6" style="stroke:#C82930;stroke-width:1;" width="6" x="289.48" y="384.5873"/><text fill="#000000" font-family="sans-serif" font-size="14" lengthAdjust="spacing" textLength="171.3428" x="301.48" y="391.3783">bit_stuffing_simple_test()</text><rect fill="#F24D5C" height="6" style="stroke:#C82930;stroke-width:1;" width="6" x="289.48" y="401.0755"/><text fill="#000000" font-family="sans-serif" font-size="14" lengthAdjust="spacing" textLength="195.583" x="301.48" y="407.8666">byte_stuffing_complex_test()</text><rect fill="#F24D5C" height="6" style="stroke:#C82930;stroke-width:1;" width="6" x="289.48" y="417.5638"/><text fill="#000000" font-family="sans-serif" font-size="14" lengthAdjust="spacing" textLength="179.7305" x="301.48" y="424.3548">byte_stuffing_empty_test()</text></g><!--class FrameHandler--><g id="elem_FrameHandler"><rect codeLine="141" fill="#F1F1F1" height="174.3945" id="FrameHandler" rx="2.5" ry="2.5" style="stroke:#181818;stroke-width:0.5;" width="1309.9531" x="2904.29" y="990.54"/><ellipse cx="3505.3364" cy="1012.0283" fill="#E3664A" rx="11" ry="11" style="stroke:#181818;stroke-width:1;"/><path d="M3507.913,1012.2544 Q3507.913,1011.3164 3507.4897,1010.7851 Q3507.0664,1010.2539 3506.3276,1010.2539 Q3505.5888,1010.2539 3505.1696,1010.7851 Q3504.7504,1011.3164 3504.7504,1012.2544 Q3504.7504,1013.2006 3505.1696,1013.7319 Q3505.5888,1014.2631 3506.3276,1014.2631 Q3507.0664,1014.2631 3507.4897,1013.7319 Q3507.913,1013.2006 3507.913,1012.2544 Z M3509.457,1015.6577 L3507.83,1015.6577 L3507.83,1014.977 Q3507.5146,1015.417 3507.0871,1015.6203 Q3506.6596,1015.8237 3506.062,1015.8237 Q3504.7006,1015.8237 3503.8664,1014.8442 Q3503.0322,1013.8647 3503.0322,1012.2544 Q3503.0322,1010.6523 3503.8623,1009.677 Q3504.6923,1008.7016 3506.062,1008.7016 Q3506.6513,1008.7016 3507.0996,1008.905 Q3507.5478,1009.1084 3507.83,1009.4985 L3507.83,1009.1582 Q3507.83,1008.0293 3507.2116,1007.415 Q3506.5932,1006.8007 3505.4477,1006.8007 Q3503.7212,1006.8007 3502.6296,1008.3198 Q3501.538,1009.8388 3501.538,1012.271 Q3501.538,1014.8193 3502.7998,1016.3259 Q3504.0615,1017.8325 3506.1616,1017.8325 Q3506.8256,1017.8325 3507.4482,1017.6374 Q3508.0708,1017.4423 3508.6435,1017.0522 L3509.4072,1018.5131 Q3508.7348,1018.9697 3507.9421,1019.198 Q3507.1494,1019.4262 3506.2446,1019.4262 Q3503.3393,1019.4262 3501.6128,1017.4921 Q3499.8862,1015.5581 3499.8862,1012.271 Q3499.8862,1009.0586 3501.4384,1007.1286 Q3502.9907,1005.1987 3505.5473,1005.1987 Q3507.3569,1005.1987 3508.4069,1006.2902 Q3509.457,1007.3818 3509.457,1009.2661 Z " fill="#000000"/><text fill="#000000" font-family="sans-serif" font-size="14" lengthAdjust="spacing" textLength="65.6865" x="3542.6733" y="1009.0752">&#171;module&#187;</text><text fill="#000000" font-family="sans-serif" font-size="14" lengthAdjust="spacing" textLength="94.9307" x="3530.2661" y="1025.5634">FrameHandler</text><line style="stroke:#181818;stroke-width:0.5;" x1="2905.29" x2="4213.2431" y1="1033.5166" y2="1033.5166"/><line style="stroke:#181818;stroke-width:0.5;" x1="2905.29" x2="4213.2431" y1="1041.5166" y2="1041.5166"/><ellipse cx="2915.29" cy="1055.2607" fill="#84BE84" rx="3" ry="3" style="stroke:#038048;stroke-width:1;"/><text fill="#000000" font-family="sans-serif" font-size="14" lengthAdjust="spacing" textLength="487.8467" x="2924.29" y="1059.0517">handle_receive_ready(safe_window: &amp;SafeWindow, frame: &amp;Frame): bool</text><ellipse cx="2915.29" cy="1071.749" fill="#84BE84" rx="3" ry="3" style="stroke:#038048;stroke-width:1;"/><text fill="#000000" font-family="sans-serif" font-size="14" lengthAdjust="spacing" textLength="673.292" x="2924.29" y="1075.54">handle_connection_start(safe_window: SafeWindow, writer_tx:&amp;UnboundedSender&lt;Vec&lt;u8&gt;): bool</text><ellipse cx="2915.29" cy="1088.2373" fill="#84BE84" rx="3" ry="3" style="stroke:#038048;stroke-width:1;"/><text fill="#000000" font-family="sans-serif" font-size="14" lengthAdjust="spacing" textLength="683.0811" x="2924.29" y="1092.0283">handle_connection_end(safe_window: SafeWindow, writer_tx: &amp;UnboundedSender&lt;Vec&lt;u8&gt;&gt;): bool</text><ellipse cx="2915.29" cy="1104.7255" fill="#84BE84" rx="3" ry="3" style="stroke:#038048;stroke-width:1;"/><text fill="#000000" font-family="sans-serif" font-size="14" lengthAdjust="spacing" textLength="614.0859" x="2924.29" y="1108.5166">handle_reject(safe_window: SafeWindow, writer_tx: &amp;UnboundedSender&lt;Vec&lt;u8&gt;&gt;): bool</text><ellipse cx="2915.29" cy="1121.2138" fill="#84BE84" rx="3" ry="3" style="stroke:#038048;stroke-width:1;"/><text fill="#000000" font-family="sans-serif" font-size="14" lengthAdjust="spacing" textLength="1283.9531" x="2924.29" y="1125.0048">handle_information(safe_window: SafeWindow, frame: Frame, writer_tx:&amp;UnboundedSender&lt;Vec&lt;u8&gt;&gt;, assembler_tx:&amp;UnboundedSender&lt;Vec&lt;u8&gt;&gt;, expected_info_num: &amp;mut u8): bool</text><rect fill="#F24D5C" height="6" style="stroke:#C82930;stroke-width:1;" width="6" x="2912.29" y="1134.7021"/><text fill="#000000" font-family="sans-serif" font-size="14" lengthAdjust="spacing" textLength="924.2598" x="2924.29" y="1141.4931">handle_dropped_frame(frame: &amp;Frame, safe_window:&amp;SafeWindow,writer_tx:&amp;UnboundedSender&lt;Vec&lt;u8&gt;&gt;, expected_info_num: &amp;u8)</text><ellipse cx="2915.29" cy="1154.1904" fill="#84BE84" rx="3" ry="3" style="stroke:#038048;stroke-width:1;"/><text fill="#000000" font-family="sans-serif" font-size="14" lengthAdjust="spacing" textLength="584.9033" x="2924.29" y="1157.9814">handle_p(safe_window: SafeWindow, writer_tx: &amp;UnboundedSender&lt;Vec&lt;u8&gt;&gt;): bool</text></g><!--class TestsFrameHandler--><g id="elem_TestsFrameHandler"><rect codeLine="151" fill="#F1F1F1" height="124.9297" id="TestsFrameHandler" rx="2.5" ry="2.5" style="stroke:#181818;stroke-width:0.5;" width="227.2705" x="537.63" y="298.13"/><ellipse cx="597.8033" cy="319.6183" fill="#E3664A" rx="11" ry="11" style="stroke:#181818;stroke-width:1;"/><path d="M600.38,319.8444 Q600.38,318.9064 599.9567,318.3751 Q599.5333,317.8439 598.7946,317.8439 Q598.0558,317.8439 597.6366,318.3751 Q597.2174,318.9064 597.2174,319.8444 Q597.2174,320.7906 597.6366,321.3219 Q598.0558,321.8531 598.7946,321.8531 Q599.5333,321.8531 599.9567,321.3219 Q600.38,320.7906 600.38,319.8444 Z M601.9239,323.2477 L600.297,323.2477 L600.297,322.567 Q599.9816,323.007 599.5541,323.2103 Q599.1266,323.4137 598.5289,323.4137 Q597.1676,323.4137 596.3334,322.4342 Q595.4991,321.4547 595.4991,319.8444 Q595.4991,318.2423 596.3292,317.267 Q597.1593,316.2916 598.5289,316.2916 Q599.1183,316.2916 599.5665,316.495 Q600.0148,316.6984 600.297,317.0885 L600.297,316.7482 Q600.297,315.6193 599.6786,315.005 Q599.0602,314.3907 597.9147,314.3907 Q596.1881,314.3907 595.0966,315.9098 Q594.005,317.4288 594.005,319.861 Q594.005,322.4093 595.2667,323.9159 Q596.5284,325.4225 598.6285,325.4225 Q599.2926,325.4225 599.9152,325.2274 Q600.5377,325.0323 601.1105,324.6422 L601.8741,326.1031 Q601.2018,326.5597 600.4091,326.788 Q599.6163,327.0162 598.7115,327.0162 Q595.8063,327.0162 594.0797,325.0821 Q592.3531,323.1481 592.3531,319.861 Q592.3531,316.6486 593.9054,314.7186 Q595.4576,312.7887 598.0143,312.7887 Q599.8238,312.7887 600.8739,313.8802 Q601.9239,314.9718 601.9239,316.8561 Z " fill="#000000"/><text fill="#000000" font-family="sans-serif" font-size="14" lengthAdjust="spacing" textLength="98.4238" x="618.3033" y="316.6652">&#171;sub-module&#187;</text><text fill="#000000" font-family="sans-serif" font-size="14" lengthAdjust="spacing" textLength="32.5459" x="653.4571" y="333.1534">tests</text><line style="stroke:#181818;stroke-width:0.5;" x1="538.63" x2="763.9005" y1="341.1066" y2="341.1066"/><line style="stroke:#181818;stroke-width:0.5;" x1="538.63" x2="763.9005" y1="349.1066" y2="349.1066"/><rect fill="#F24D5C" height="6" style="stroke:#C82930;stroke-width:1;" width="6" x="545.63" y="359.8507"/><text fill="#000000" font-family="sans-serif" font-size="14" lengthAdjust="spacing" textLength="201.2705" x="557.63" y="366.6417">test_handle_connection_end()</text><rect fill="#F24D5C" height="6" style="stroke:#C82930;stroke-width:1;" width="6" x="545.63" y="376.339"/><text fill="#000000" font-family="sans-serif" font-size="14" lengthAdjust="spacing" textLength="186.2588" x="557.63" y="383.13">test_handle_receive_ready()</text><rect fill="#F24D5C" height="6" style="stroke:#C82930;stroke-width:1;" width="6" x="545.63" y="392.8273"/><text fill="#000000" font-family="sans-serif" font-size="14" lengthAdjust="spacing" textLength="132.2754" x="557.63" y="399.6183">test_handle_reject()</text><rect fill="#F24D5C" height="6" style="stroke:#C82930;stroke-width:1;" width="6" x="545.63" y="409.3155"/><text fill="#000000" font-family="sans-serif" font-size="14" lengthAdjust="spacing" textLength="119.9434" x="557.63" y="416.1066">test_frame_drop()</text></g><!--class Misc--><g id="elem_Misc"><rect codeLine="158" fill="#F1F1F1" height="75.4648" id="Misc" rx="2.5" ry="2.5" style="stroke:#181818;stroke-width:0.5;" width="618.9492" x="1683.79" y="673.19"/><ellipse cx="1956.1713" cy="694.6783" fill="#E3664A" rx="11" ry="11" style="stroke:#181818;stroke-width:1;"/><path d="M1958.748,694.9044 Q1958.748,693.9664 1958.3247,693.4351 Q1957.9013,692.9039 1957.1626,692.9039 Q1956.4238,692.9039 1956.0046,693.4351 Q1955.5854,693.9664 1955.5854,694.9044 Q1955.5854,695.8506 1956.0046,696.3819 Q1956.4238,696.9131 1957.1626,696.9131 Q1957.9013,696.9131 1958.3247,696.3819 Q1958.748,695.8506 1958.748,694.9044 Z M1960.292,698.3077 L1958.665,698.3077 L1958.665,697.627 Q1958.3496,698.067 1957.9221,698.2703 Q1957.4946,698.4737 1956.8969,698.4737 Q1955.5356,698.4737 1954.7014,697.4942 Q1953.8671,696.5147 1953.8671,694.9044 Q1953.8671,693.3023 1954.6972,692.327 Q1955.5273,691.3516 1956.8969,691.3516 Q1957.4863,691.3516 1957.9345,691.555 Q1958.3828,691.7584 1958.665,692.1485 L1958.665,691.8082 Q1958.665,690.6793 1958.0466,690.065 Q1957.4282,689.4507 1956.2827,689.4507 Q1954.5561,689.4507 1953.4646,690.9698 Q1952.373,692.4888 1952.373,694.921 Q1952.373,697.4693 1953.6347,698.9759 Q1954.8964,700.4825 1956.9965,700.4825 Q1957.6606,700.4825 1958.2832,700.2874 Q1958.9057,700.0923 1959.4785,699.7022 L1960.2421,701.1631 Q1959.5698,701.6197 1958.7771,701.848 Q1957.9843,702.0762 1957.0796,702.0762 Q1954.1743,702.0762 1952.4477,700.1421 Q1950.7212,698.2081 1950.7212,694.921 Q1950.7212,691.7086 1952.2734,689.7786 Q1953.8256,687.8487 1956.3823,687.8487 Q1958.1919,687.8487 1959.2419,688.9402 Q1960.292,690.0318 1960.292,691.9161 Z " fill="#000000"/><text fill="#000000" font-family="sans-serif" font-size="14" lengthAdjust="spacing" textLength="65.6865" x="1976.6713" y="691.7252">&#171;module&#187;</text><text fill="#000000" font-family="sans-serif" font-size="14" lengthAdjust="spacing" textLength="30.4131" x="1996.5229" y="708.2134">Misc</text><line style="stroke:#181818;stroke-width:0.5;" x1="1684.79" x2="2301.7392" y1="716.1666" y2="716.1666"/><line style="stroke:#181818;stroke-width:0.5;" x1="1684.79" x2="2301.7392" y1="724.1666" y2="724.1666"/><ellipse cx="1694.79" cy="737.9107" fill="#84BE84" rx="3" ry="3" style="stroke:#038048;stroke-width:1;"/><text fill="#000000" font-family="sans-serif" font-size="14" lengthAdjust="spacing" textLength="592.9492" x="1703.79" y="741.7017">async flatten&lt;T&gt;(handle: JoinHandle&lt;Result&lt;T, &amp;'static str&gt;&gt;) : Result&lt;T,&amp;'static str&gt;</text></g><!--class TestsMisc--><g id="elem_TestsMisc"><rect codeLine="162" fill="#F1F1F1" height="108.4414" id="TestsMisc" rx="2.5" ry="2.5" style="stroke:#181818;stroke-width:0.5;" width="179.6445" x="91.45" y="656.7"/><ellipse cx="128.5993" cy="678.1883" fill="#E3664A" rx="11" ry="11" style="stroke:#181818;stroke-width:1;"/><path d="M131.176,678.4144 Q131.176,677.4764 130.7526,676.9451 Q130.3293,676.4139 129.5905,676.4139 Q128.8518,676.4139 128.4326,676.9451 Q128.0134,677.4764 128.0134,678.4144 Q128.0134,679.3606 128.4326,679.8919 Q128.8518,680.4231 129.5905,680.4231 Q130.3293,680.4231 130.7526,679.8919 Q131.176,679.3606 131.176,678.4144 Z M132.7199,681.8177 L131.093,681.8177 L131.093,681.137 Q130.7775,681.577 130.35,681.7803 Q129.9226,681.9837 129.3249,681.9837 Q127.9636,681.9837 127.1293,681.0042 Q126.2951,680.0247 126.2951,678.4144 Q126.2951,676.8123 127.1252,675.837 Q127.9553,674.8616 129.3249,674.8616 Q129.9143,674.8616 130.3625,675.065 Q130.8107,675.2684 131.093,675.6585 L131.093,675.3182 Q131.093,674.1893 130.4746,673.575 Q129.8562,672.9607 128.7106,672.9607 Q126.9841,672.9607 125.8925,674.4798 Q124.801,675.9988 124.801,678.431 Q124.801,680.9793 126.0627,682.4859 Q127.3244,683.9925 129.4245,683.9925 Q130.0886,683.9925 130.7111,683.7974 Q131.3337,683.6023 131.9064,683.2122 L132.6701,684.6731 Q131.9978,685.1297 131.205,685.358 Q130.4123,685.5862 129.5075,685.5862 Q126.6022,685.5862 124.8757,683.6521 Q123.1491,681.7181 123.1491,678.431 Q123.1491,675.2186 124.7014,673.2886 Q126.2536,671.3587 128.8103,671.3587 Q130.6198,671.3587 131.6699,672.4502 Q132.7199,673.5418 132.7199,675.4261 Z " fill="#000000"/><text fill="#000000" font-family="sans-serif" font-size="14" lengthAdjust="spacing" textLength="98.4238" x="147.5214" y="675.2352">&#171;sub-module&#187;</text><text fill="#000000" font-family="sans-serif" font-size="14" lengthAdjust="spacing" textLength="32.5459" x="182.6752" y="691.7234">tests</text><line style="stroke:#181818;stroke-width:0.5;" x1="92.45" x2="270.0945" y1="699.6766" y2="699.6766"/><line style="stroke:#181818;stroke-width:0.5;" x1="92.45" x2="270.0945" y1="707.6766" y2="707.6766"/><rect fill="#F24D5C" height="6" style="stroke:#C82930;stroke-width:1;" width="6" x="99.45" y="718.4207"/><text fill="#000000" font-family="sans-serif" font-size="14" lengthAdjust="spacing" textLength="109.1836" x="111.45" y="725.2117">test_flatten_ok()</text><rect fill="#F24D5C" height="6" style="stroke:#C82930;stroke-width:1;" width="6" x="99.45" y="734.909"/><text fill="#000000" font-family="sans-serif" font-size="14" lengthAdjust="spacing" textLength="125.9863" x="111.45" y="741.7">test_flatten_error()</text><rect fill="#F24D5C" height="6" style="stroke:#C82930;stroke-width:1;" width="6" x="99.45" y="751.3973"/><text fill="#000000" font-family="sans-serif" font-size="14" lengthAdjust="spacing" textLength="153.6445" x="111.45" y="758.1883">test_flatten_panicked()</text></g><!--class testsFrameHandler--><g id="elem_testsFrameHandler"><rect fill="#F1F1F1" height="48" id="testsFrameHandler" rx="2.5" ry="2.5" style="stroke:#181818;stroke-width:0.5;" width="159.4766" x="3479.53" y="1241.93"/><ellipse cx="3494.53" cy="1257.93" fill="#ADD1B2" rx="11" ry="11" style="stroke:#181818;stroke-width:1;"/><path d="M3497.0031,1264.0731 Q3496.4221,1264.3719 3495.7829,1264.5213 Q3495.1438,1264.6707 3494.4382,1264.6707 Q3491.9314,1264.6707 3490.6115,1263.0189 Q3489.2917,1261.367 3489.2917,1258.2459 Q3489.2917,1255.1165 3490.6115,1253.4647 Q3491.9314,1251.8128 3494.4382,1251.8128 Q3495.1438,1251.8128 3495.7912,1251.9622 Q3496.4387,1252.1116 3497.0031,1252.4105 L3497.0031,1255.1331 Q3496.3723,1254.5521 3495.7788,1254.2823 Q3495.1853,1254.0125 3494.5544,1254.0125 Q3493.2097,1254.0125 3492.5249,1255.0792 Q3491.8401,1256.1458 3491.8401,1258.2459 Q3491.8401,1260.3377 3492.5249,1261.4044 Q3493.2097,1262.471 3494.5544,1262.471 Q3495.1853,1262.471 3495.7788,1262.2012 Q3496.3723,1261.9315 3497.0031,1261.3504 Z " fill="#000000"/><text fill="#000000" font-family="sans-serif" font-size="14" lengthAdjust="spacing" textLength="127.4766" x="3508.53" y="1263.221">testsFrameHandler</text><line style="stroke:#181818;stroke-width:0.5;" x1="3480.53" x2="3638.0066" y1="1273.93" y2="1273.93"/><line style="stroke:#181818;stroke-width:0.5;" x1="3480.53" x2="3638.0066" y1="1281.93" y2="1281.93"/></g><!--class testsFrame--><g id="elem_testsFrame"><rect fill="#F1F1F1" height="48" id="testsFrame" rx="2.5" ry="2.5" style="stroke:#181818;stroke-width:0.5;" width="106.3818" x="1246.08" y="1053.73"/><ellipse cx="1261.08" cy="1069.73" fill="#ADD1B2" rx="11" ry="11" style="stroke:#181818;stroke-width:1;"/><path d="M1263.5531,1075.8731 Q1262.9721,1076.1719 1262.3329,1076.3213 Q1261.6938,1076.4707 1260.9882,1076.4707 Q1258.4814,1076.4707 1257.1615,1074.8189 Q1255.8417,1073.167 1255.8417,1070.0459 Q1255.8417,1066.9165 1257.1615,1065.2647 Q1258.4814,1063.6128 1260.9882,1063.6128 Q1261.6938,1063.6128 1262.3412,1063.7622 Q1262.9887,1063.9116 1263.5531,1064.2105 L1263.5531,1066.9331 Q1262.9223,1066.3521 1262.3288,1066.0823 Q1261.7353,1065.8125 1261.1044,1065.8125 Q1259.7597,1065.8125 1259.0749,1066.8792 Q1258.3901,1067.9458 1258.3901,1070.0459 Q1258.3901,1072.1377 1259.0749,1073.2044 Q1259.7597,1074.271 1261.1044,1074.271 Q1261.7353,1074.271 1262.3288,1074.0012 Q1262.9223,1073.7315 1263.5531,1073.1504 Z " fill="#000000"/><text fill="#000000" font-family="sans-serif" font-size="14" lengthAdjust="spacing" textLength="74.3818" x="1275.08" y="1075.021">testsFrame</text><line style="stroke:#181818;stroke-width:0.5;" x1="1247.08" x2="1351.4618" y1="1085.73" y2="1085.73"/><line style="stroke:#181818;stroke-width:0.5;" x1="1247.08" x2="1351.4618" y1="1093.73" y2="1093.73"/></g><!--class testsWindow--><g id="elem_testsWindow"><rect fill="#F1F1F1" height="48" id="testsWindow" rx="2.5" ry="2.5" style="stroke:#181818;stroke-width:0.5;" width="117.4561" x="1540.54" y="1053.73"/><ellipse cx="1555.54" cy="1069.73" fill="#ADD1B2" rx="11" ry="11" style="stroke:#181818;stroke-width:1;"/><path d="M1558.0131,1075.8731 Q1557.4321,1076.1719 1556.7929,1076.3213 Q1556.1538,1076.4707 1555.4482,1076.4707 Q1552.9414,1076.4707 1551.6215,1074.8189 Q1550.3017,1073.167 1550.3017,1070.0459 Q1550.3017,1066.9165 1551.6215,1065.2647 Q1552.9414,1063.6128 1555.4482,1063.6128 Q1556.1538,1063.6128 1556.8012,1063.7622 Q1557.4487,1063.9116 1558.0131,1064.2105 L1558.0131,1066.9331 Q1557.3823,1066.3521 1556.7888,1066.0823 Q1556.1953,1065.8125 1555.5644,1065.8125 Q1554.2197,1065.8125 1553.5349,1066.8792 Q1552.8501,1067.9458 1552.8501,1070.0459 Q1552.8501,1072.1377 1553.5349,1073.2044 Q1554.2197,1074.271 1555.5644,1074.271 Q1556.1953,1074.271 1556.7888,1074.0012 Q1557.3823,1073.7315 1558.0131,1073.1504 Z " fill="#000000"/><text fill="#000000" font-family="sans-serif" font-size="14" lengthAdjust="spacing" textLength="85.4561" x="1569.54" y="1075.021">testsWindow</text><line style="stroke:#181818;stroke-width:0.5;" x1="1541.54" x2="1656.9961" y1="1085.73" y2="1085.73"/><line style="stroke:#181818;stroke-width:0.5;" x1="1541.54" x2="1656.9961" y1="1093.73" y2="1093.73"/></g><!--class testsCRC--><g id="elem_testsCRC"><rect fill="#F1F1F1" height="48" id="testsCRC" rx="2.5" ry="2.5" style="stroke:#181818;stroke-width:0.5;" width="92.7715" x="520.88" y="1241.93"/><ellipse cx="535.88" cy="1257.93" fill="#ADD1B2" rx="11" ry="11" style="stroke:#181818;stroke-width:1;"/><path d="M538.3531,1264.0731 Q537.7721,1264.3719 537.1329,1264.5213 Q536.4938,1264.6707 535.7882,1264.6707 Q533.2814,1264.6707 531.9615,1263.0189 Q530.6417,1261.367 530.6417,1258.2459 Q530.6417,1255.1165 531.9615,1253.4647 Q533.2814,1251.8128 535.7882,1251.8128 Q536.4938,1251.8128 537.1412,1251.9622 Q537.7887,1252.1116 538.3531,1252.4105 L538.3531,1255.1331 Q537.7223,1254.5521 537.1288,1254.2823 Q536.5353,1254.0125 535.9044,1254.0125 Q534.5597,1254.0125 533.8749,1255.0792 Q533.1901,1256.1458 533.1901,1258.2459 Q533.1901,1260.3377 533.8749,1261.4044 Q534.5597,1262.471 535.9044,1262.471 Q536.5353,1262.471 537.1288,1262.2012 Q537.7223,1261.9315 538.3531,1261.3504 Z " fill="#000000"/><text fill="#000000" font-family="sans-serif" font-size="14" lengthAdjust="spacing" textLength="60.7715" x="549.88" y="1263.221">testsCRC</text><line style="stroke:#181818;stroke-width:0.5;" x1="521.88" x2="612.6515" y1="1273.93" y2="1273.93"/><line style="stroke:#181818;stroke-width:0.5;" x1="521.88" x2="612.6515" y1="1281.93" y2="1281.93"/></g><!--class testsByteStuffing--><g id="elem_testsByteStuffing"><rect fill="#F1F1F1" height="48" id="testsByteStuffing" rx="2.5" ry="2.5" style="stroke:#181818;stroke-width:0.5;" width="146.1738" x="891.18" y="1241.93"/><ellipse cx="906.18" cy="1257.93" fill="#ADD1B2" rx="11" ry="11" style="stroke:#181818;stroke-width:1;"/><path d="M908.6531,1264.0731 Q908.0721,1264.3719 907.4329,1264.5213 Q906.7938,1264.6707 906.0882,1264.6707 Q903.5814,1264.6707 902.2615,1263.0189 Q900.9417,1261.367 900.9417,1258.2459 Q900.9417,1255.1165 902.2615,1253.4647 Q903.5814,1251.8128 906.0882,1251.8128 Q906.7938,1251.8128 907.4412,1251.9622 Q908.0887,1252.1116 908.6531,1252.4105 L908.6531,1255.1331 Q908.0223,1254.5521 907.4288,1254.2823 Q906.8353,1254.0125 906.2044,1254.0125 Q904.8597,1254.0125 904.1749,1255.0792 Q903.4901,1256.1458 903.4901,1258.2459 Q903.4901,1260.3377 904.1749,1261.4044 Q904.8597,1262.471 906.2044,1262.471 Q906.8353,1262.471 907.4288,1262.2012 Q908.0223,1261.9315 908.6531,1261.3504 Z " fill="#000000"/><text fill="#000000" font-family="sans-serif" font-size="14" lengthAdjust="spacing" textLength="114.1738" x="920.18" y="1263.221">testsByteStuffing</text><line style="stroke:#181818;stroke-width:0.5;" x1="892.18" x2="1036.3538" y1="1273.93" y2="1273.93"/><line style="stroke:#181818;stroke-width:0.5;" x1="892.18" x2="1036.3538" y1="1281.93" y2="1281.93"/></g><!--class testsMisc--><g id="elem_testsMisc"><rect fill="#F1F1F1" height="48" id="testsMisc" rx="2.5" ry="2.5" style="stroke:#181818;stroke-width:0.5;" width="94.959" x="1945.79" y="1053.73"/><ellipse cx="1960.79" cy="1069.73" fill="#ADD1B2" rx="11" ry="11" style="stroke:#181818;stroke-width:1;"/><path d="M1963.2631,1075.8731 Q1962.6821,1076.1719 1962.0429,1076.3213 Q1961.4038,1076.4707 1960.6982,1076.4707 Q1958.1914,1076.4707 1956.8715,1074.8189 Q1955.5517,1073.167 1955.5517,1070.0459 Q1955.5517,1066.9165 1956.8715,1065.2647 Q1958.1914,1063.6128 1960.6982,1063.6128 Q1961.4038,1063.6128 1962.0512,1063.7622 Q1962.6987,1063.9116 1963.2631,1064.2105 L1963.2631,1066.9331 Q1962.6323,1066.3521 1962.0388,1066.0823 Q1961.4453,1065.8125 1960.8144,1065.8125 Q1959.4697,1065.8125 1958.7849,1066.8792 Q1958.1001,1067.9458 1958.1001,1070.0459 Q1958.1001,1072.1377 1958.7849,1073.2044 Q1959.4697,1074.271 1960.8144,1074.271 Q1961.4453,1074.271 1962.0388,1074.0012 Q1962.6323,1073.7315 1963.2631,1073.1504 Z " fill="#000000"/><text fill="#000000" font-family="sans-serif" font-size="14" lengthAdjust="spacing" textLength="62.959" x="1974.79" y="1075.021">testsMisc</text><line style="stroke:#181818;stroke-width:0.5;" x1="1946.79" x2="2039.749" y1="1085.73" y2="1085.73"/><line style="stroke:#181818;stroke-width:0.5;" x1="1946.79" x2="2039.749" y1="1093.73" y2="1093.73"/></g><!--class testsIO--><g id="elem_testsIO"><rect fill="#F1F1F1" height="48" id="testsIO" rx="2.5" ry="2.5" style="stroke:#181818;stroke-width:0.5;" width="79.4551" x="2789.54" y="1053.73"/><ellipse cx="2804.54" cy="1069.73" fill="#ADD1B2" rx="11" ry="11" style="stroke:#181818;stroke-width:1;"/><path d="M2807.0131,1075.8731 Q2806.4321,1076.1719 2805.7929,1076.3213 Q2805.1538,1076.4707 2804.4482,1076.4707 Q2801.9414,1076.4707 2800.6215,1074.8189 Q2799.3017,1073.167 2799.3017,1070.0459 Q2799.3017,1066.9165 2800.6215,1065.2647 Q2801.9414,1063.6128 2804.4482,1063.6128 Q2805.1538,1063.6128 2805.8012,1063.7622 Q2806.4487,1063.9116 2807.0131,1064.2105 L2807.0131,1066.9331 Q2806.3823,1066.3521 2805.7888,1066.0823 Q2805.1953,1065.8125 2804.5644,1065.8125 Q2803.2197,1065.8125 2802.5349,1066.8792 Q2801.8501,1067.9458 2801.8501,1070.0459 Q2801.8501,1072.1377 2802.5349,1073.2044 Q2803.2197,1074.271 2804.5644,1074.271 Q2805.1953,1074.271 2805.7888,1074.0012 Q2806.3823,1073.7315 2807.0131,1073.1504 Z " fill="#000000"/><text fill="#000000" font-family="sans-serif" font-size="14" lengthAdjust="spacing" textLength="47.4551" x="2818.54" y="1075.021">testsIO</text><line style="stroke:#181818;stroke-width:0.5;" x1="2790.54" x2="2867.9951" y1="1085.73" y2="1085.73"/><line style="stroke:#181818;stroke-width:0.5;" x1="2790.54" x2="2867.9951" y1="1093.73" y2="1093.73"/></g><!--link Client to Server--><g id="link_Client_Server"><path codeLine="178" d="M1771.04,148.78 C1717.85,169.59 1656.92,196.62 1605.27,227.89 C1564.64,252.48 1527.9118,282.8663 1497.6518,310.3463 " fill="none" id="Client-to-Server" style="stroke:#181818;stroke-width:1;"/><polygon fill="#181818" points="1493.21,314.38,1502.5618,311.2906,1496.9115,311.0186,1497.1835,305.3683,1493.21,314.38" style="stroke:#181818;stroke-width:1;"/><text fill="#000000" font-family="sans-serif" font-size="13" lengthAdjust="spacing" textLength="62.7656" x="1623.8847" y="241.4584">envoie les</text><text fill="#000000" font-family="sans-serif" font-size="13" lengthAdjust="spacing" textLength="102.1084" x="1606.27" y="256.7689">frames du client</text></g><!--link Server to Client--><g id="link_Server_Client"><path codeLine="179" d="M1594.74,314.14 C1634.46,299.33 1676.54,281.13 1713.27,259.89 C1766.73,228.96 1815.896,186.987 1852.266,152.837 " fill="none" id="Server-to-Client" style="stroke:#181818;stroke-width:1;"/><polygon fill="#181818" points="1856.64,148.73,1847.3409,151.9745,1852.995,152.1525,1852.817,157.8066,1856.64,148.73" style="stroke:#181818;stroke-width:1;"/><text fill="#000000" font-family="sans-serif" font-size="13" lengthAdjust="spacing" textLength="62.7656" x="1782.9248" y="241.4584">envoie les</text><text fill="#000000" font-family="sans-serif" font-size="13" lengthAdjust="spacing" textLength="114.3086" x="1759.21" y="256.7689">frames du serveur</text></g><!--link Frame to FrameType--><g id="link_Frame_FrameType"><path codeLine="181" d="M636.92,781.33 C506.69,830.92 335.2,904.03 195.27,990.54 C189.52,994.09 188.648,994.4845 182.938,998.5245 " fill="none" id="Frame-to-FrameType" style="stroke:#181818;stroke-width:1;"/><polygon fill="#181818" points="178.04,1001.99,187.6973,1000.0571,182.1217,999.1021,183.0767,993.5264,178.04,1001.99" style="stroke:#181818;stroke-width:1;"/><text fill="#000000" font-family="sans-serif" font-size="13" lengthAdjust="spacing" textLength="38.0732" x="261.5" y="957.1084">utilise</text></g><!--link Frame to FrameError--><g id="link_Frame_FrameError"><path codeLine="182" d="M673.79,823.05 C600.46,873.79 512.74,934.86 434.27,990.54 C428.96,994.3 428.407,994.675 422.937,998.595 " fill="none" id="Frame-to-FrameError" style="stroke:#181818;stroke-width:1;"/><polygon fill="#181818" points="418.06,1002.09,427.7055,1000.0988,422.1241,999.1775,423.0454,993.5962,418.06,1002.09" style="stroke:#181818;stroke-width:1;"/><text fill="#000000" font-family="sans-serif" font-size="13" lengthAdjust="spacing" textLength="38.0732" x="500.55" y="957.1084">utilise</text></g><!--link Client to Frame--><g id="link_Client_Frame"><path codeLine="184" d="M1508.35,123.19 C1247.83,145.28 939.03,191.88 853.27,289.89 C780.45,373.1 786.3948,499.0364 804.2948,592.7964 " fill="none" id="Client-to-Frame" style="stroke:#181818;stroke-width:1;"/><polygon fill="#181818" points="805.42,598.69,807.6613,589.0996,804.4824,593.7787,799.8032,590.5998,805.42,598.69" style="stroke:#181818;stroke-width:1;"/><text fill="#000000" font-family="sans-serif" font-size="13" lengthAdjust="spacing" textLength="38.0732" x="854.27" y="365.6684">utilise</text></g><!--link Server to Frame--><g id="link_Server_Frame"><path codeLine="185" d="M1366.71,406.95 C1281.87,455.32 1149.5425,530.7585 1035.6425,595.6885 " fill="none" id="Server-to-Frame" style="stroke:#181818;stroke-width:1;"/><polygon fill="#181818" points="1030.43,598.66,1040.2298,597.6778,1034.7738,596.1838,1036.2678,590.7278,1030.43,598.66" style="stroke:#181818;stroke-width:1;"/><text fill="#000000" font-family="sans-serif" font-size="13" lengthAdjust="spacing" textLength="38.0732" x="1266.73" y="474.8684">utilise</text></g><!--link Client to Window--><g id="link_Client_Window"><path codeLine="186" d="M1938.96,148.88 C1989.33,217.07 2066.41,346.86 1999.27,431.3 C1904.73,550.2 1800.69,437.55 1666.27,508.3 C1660.54,511.32 1659.993,511.4464 1654.343,514.8164 " fill="none" id="Client-to-Window" style="stroke:#181818;stroke-width:1;"/><polygon fill="#181818" points="1649.19,517.89,1658.9685,516.715,1653.4842,515.3287,1654.8704,509.8443,1649.19,517.89" style="stroke:#181818;stroke-width:1;"/><text fill="#000000" font-family="sans-serif" font-size="13" lengthAdjust="spacing" textLength="38.0732" x="2026.5" y="365.6684">utilise</text></g><!--link Server to Window--><g id="link_Server_Window"><path codeLine="187" d="M1446.27,406.78 C1446.27,433.65 1446.27,463.85 1446.27,501.87 " fill="none" id="Server-to-Window" style="stroke:#181818;stroke-width:1;"/><polygon fill="#181818" points="1446.27,507.87,1450.27,498.87,1446.27,502.87,1442.27,498.87,1446.27,507.87" style="stroke:#181818;stroke-width:1;"/><text fill="#000000" font-family="sans-serif" font-size="13" lengthAdjust="spacing" textLength="38.0732" x="1447.27" y="474.8684">utilise</text></g><!--link Window to WindowError--><g id="link_Window_WindowError"><path codeLine="189" d="M1446.27,913.8 C1446.27,965.15 1446.27,1008.42 1446.27,1039.08 " fill="none" id="Window-to-WindowError" style="stroke:#181818;stroke-width:1;"/><polygon fill="#181818" points="1446.27,1045.08,1450.27,1036.08,1446.27,1040.08,1442.27,1036.08,1446.27,1045.08" style="stroke:#181818;stroke-width:1;"/><text fill="#000000" font-family="sans-serif" font-size="13" lengthAdjust="spacing" textLength="38.0732" x="1447.27" y="957.1084">utilise</text></g><!--link Frame to CRC--><g id="link_Frame_CRC"><path codeLine="191" d="M753.77,822.86 C702.33,892.88 642.1923,974.7446 604.1223,1026.5646 " fill="none" id="Frame-to-CRC" style="stroke:#181818;stroke-width:1;"/><polygon fill="#181818" points="600.57,1031.4,609.1221,1026.5152,603.5303,1027.3705,602.6749,1021.7787,600.57,1031.4" style="stroke:#181818;stroke-width:1;"/><text fill="#000000" font-family="sans-serif" font-size="13" lengthAdjust="spacing" textLength="38.0732" x="662.61" y="957.1084">utilise</text></g><!--link Frame to ByteStuffing--><g id="link_Frame_ByteStuffing"><path codeLine="192" d="M874.5,822.86 C899.26,892.88 927.9201,973.9231 946.2401,1025.7431 " fill="none" id="Frame-to-ByteStuffing" style="stroke:#181818;stroke-width:1;"/><polygon fill="#181818" points="948.24,1031.4,949.0114,1021.5814,946.5734,1026.6859,941.4689,1024.2479,948.24,1031.4" style="stroke:#181818;stroke-width:1;"/><text fill="#000000" font-family="sans-serif" font-size="13" lengthAdjust="spacing" textLength="38.0732" x="923.54" y="957.1084">utilise</text></g><!--link Client to IO--><g id="link_Client_IO"><path codeLine="201" d="M1986.97,148.78 C2183.09,253.76 2664.2401,511.3186 2899.0501,636.9986 " fill="none" id="Client-to-IO" style="stroke:#181818;stroke-width:1;"/><polygon fill="#181818" points="2904.34,639.83,2898.2927,632.0563,2899.9317,637.4705,2894.5175,639.1095,2904.34,639.83" style="stroke:#181818;stroke-width:1;"/><text fill="#000000" font-family="sans-serif" font-size="13" lengthAdjust="spacing" textLength="38.0732" x="2507.51" y="365.6684">utilise</text></g><!--link Server to IO--><g id="link_Server_IO"><path codeLine="202" d="M1768.04,407.06 C1933.85,432.64 2138.8,467.61 2320.27,508.3 C2486.07,545.48 2664.8431,596.0658 2804.9031,638.0858 " fill="none" id="Server-to-IO" style="stroke:#181818;stroke-width:1;"/><polygon fill="#181818" points="2810.65,639.81,2803.179,633.3925,2805.8609,638.3732,2800.8802,641.055,2810.65,639.81" style="stroke:#181818;stroke-width:1;"/><text fill="#000000" font-family="sans-serif" font-size="13" lengthAdjust="spacing" textLength="38.0732" x="2155.29" y="474.8684">utilise</text></g><!--link IO to FrameHandler--><g id="link_IO_FrameHandler"><path codeLine="204" d="M3135.99,782.04 C3221.16,841.34 3338.6257,923.122 3429.9157,986.672 " fill="none" id="IO-to-FrameHandler" style="stroke:#181818;stroke-width:1;"/><polygon fill="#181818" points="3434.84,990.1,3429.7388,981.6751,3430.7364,987.2433,3425.1682,988.2409,3434.84,990.1" style="stroke:#181818;stroke-width:1;"/><text fill="#000000" font-family="sans-serif" font-size="13" lengthAdjust="spacing" textLength="38.0732" x="3390.78" y="957.1084">utilise</text></g><!--link Client to Misc--><g id="link_Client_Misc"><path codeLine="206" d="M1987.62,148.69 C2019.71,169.24 2054.21,196.12 2078.27,227.89 C2101.34,258.35 2138.31,372.32 2151.27,461.3 C2163.72,546.83 2095.3705,623.8007 2044.4205,668.9507 " fill="none" id="Client-to-Misc" style="stroke:#181818;stroke-width:1;"/><polygon fill="#181818" points="2039.93,672.93,2049.3187,669.9547,2043.6721,669.6139,2044.0129,663.9673,2039.93,672.93" style="stroke:#181818;stroke-width:1;"/><text fill="#000000" font-family="sans-serif" font-size="13" lengthAdjust="spacing" textLength="38.0732" x="2147.11" y="365.6684">utilise</text></g><!--link Server to Misc--><g id="link_Server_Misc"><path codeLine="207" d="M1517.5,406.95 C1626.87,476.6 1829.0091,605.3171 1929.9791,669.6171 " fill="none" id="Server-to-Misc" style="stroke:#181818;stroke-width:1;"/><polygon fill="#181818" points="1935.04,672.84,1929.5972,664.6317,1930.8226,670.1542,1925.3,671.3796,1935.04,672.84" style="stroke:#181818;stroke-width:1;"/><text fill="#000000" font-family="sans-serif" font-size="13" lengthAdjust="spacing" textLength="38.0732" x="1624.2" y="474.8684">utilise</text></g><!--link FrameHandler to testsFrameHandler--><g id="link_FrameHandler_testsFrameHandler"><path codeLine="210" d="M3559.27,1165.29 C3559.27,1193.4 3559.27,1216.31 3559.27,1235.7 " fill="none" id="FrameHandler-to-testsFrameHandler" style="stroke:#181818;stroke-width:1;"/><polygon fill="#181818" points="3559.27,1241.7,3563.27,1232.7,3559.27,1236.7,3555.27,1232.7,3559.27,1241.7" style="stroke:#181818;stroke-width:1;"/><text fill="#000000" font-family="sans-serif" font-size="13" lengthAdjust="spacing" textLength="51.5049" x="3560.27" y="1208.4984">contient</text></g><!--link Frame to testsFrame--><g id="link_Frame_testsFrame"><path codeLine="211" d="M1014.28,823.3 C1084.61,870.85 1163.96,929.44 1229.27,990.54 C1249.82,1009.76 1266.1642,1030.2525 1279.4542,1048.4725 " fill="none" id="Frame-to-testsFrame" style="stroke:#181818;stroke-width:1;"/><polygon fill="#181818" points="1282.99,1053.32,1280.9179,1043.6916,1280.0435,1049.2804,1274.4546,1048.406,1282.99,1053.32" style="stroke:#181818;stroke-width:1;"/><text fill="#000000" font-family="sans-serif" font-size="13" lengthAdjust="spacing" textLength="51.5049" x="1191.29" y="957.1084">contient</text></g><!--link Window to testsWindow--><g id="link_Window_testsWindow"><path codeLine="212" d="M1530.94,913.8 C1554.54,970.09 1574.7789,1018.3472 1587.1589,1047.8572 " fill="none" id="Window-to-testsWindow" style="stroke:#181818;stroke-width:1;"/><polygon fill="#181818" points="1589.48,1053.39,1589.6869,1043.5433,1587.5457,1048.7793,1582.3097,1046.6382,1589.48,1053.39" style="stroke:#181818;stroke-width:1;"/><text fill="#000000" font-family="sans-serif" font-size="13" lengthAdjust="spacing" textLength="51.5049" x="1550.78" y="957.1084">contient</text></g><!--link CRC to testsCRC--><g id="link_CRC_testsCRC"><path codeLine="213" d="M567.27,1123.81 C567.27,1160.94 567.27,1206.11 567.27,1235.53 " fill="none" id="CRC-to-testsCRC" style="stroke:#181818;stroke-width:1;"/><polygon fill="#181818" points="567.27,1241.53,571.27,1232.53,567.27,1236.53,563.27,1232.53,567.27,1241.53" style="stroke:#181818;stroke-width:1;"/><text fill="#000000" font-family="sans-serif" font-size="13" lengthAdjust="spacing" textLength="51.5049" x="568.27" y="1208.4984">contient</text></g><!--link ByteStuffing to testsByteStuffing--><g id="link_ByteStuffing_testsByteStuffing"><path codeLine="214" d="M964.27,1123.81 C964.27,1160.94 964.27,1206.11 964.27,1235.53 " fill="none" id="ByteStuffing-to-testsByteStuffing" style="stroke:#181818;stroke-width:1;"/><polygon fill="#181818" points="964.27,1241.53,968.27,1232.53,964.27,1236.53,960.27,1232.53,964.27,1241.53" style="stroke:#181818;stroke-width:1;"/><text fill="#000000" font-family="sans-serif" font-size="13" lengthAdjust="spacing" textLength="51.5049" x="965.27" y="1208.4984">contient</text></g><!--link Misc to testsMisc--><g id="link_Misc_testsMisc"><path codeLine="215" d="M1993.27,748.91 C1993.27,823.9 1993.27,985.96 1993.27,1047.54 " fill="none" id="Misc-to-testsMisc" style="stroke:#181818;stroke-width:1;"/><polygon fill="#181818" points="1993.27,1053.54,1997.27,1044.54,1993.27,1048.54,1989.27,1044.54,1993.27,1053.54" style="stroke:#181818;stroke-width:1;"/><text fill="#000000" font-family="sans-serif" font-size="13" lengthAdjust="spacing" textLength="51.5049" x="1994.27" y="957.1084">contient</text></g><!--link IO to testsIO--><g id="link_IO_testsIO"><path codeLine="216" d="M2995.79,781.83 C2948.83,865 2875.9109,994.1458 2845.4709,1048.0358 " fill="none" id="IO-to-testsIO" style="stroke:#181818;stroke-width:1;"/><polygon fill="#181818" points="2842.52,1053.26,2850.4292,1047.391,2844.9791,1048.9065,2843.4636,1043.4564,2842.52,1053.26" style="stroke:#181818;stroke-width:1;"/><text fill="#000000" font-family="sans-serif" font-size="13" lengthAdjust="spacing" textLength="51.5049" x="2902.78" y="957.1084">contient</text></g><!--SRC=[jLXjKzms4FxkNw7Xmt4tEIOlJIXpfSm0WOIqXCxTqNGQCXfXwq319xko35nRVa-dloD_hAiNovBjEo1jyu7uj2ljiuzsLokj5rUCvqIGEKePftAHKvHdwKBzYDPh8SyIMj0SFN_rp1yMX5_fuMVFeYXEIL4WjBQzNKXHnd9dvuplfunokOP8WSpd7n526_1pmMDKK5dcECuufx5a6U_3F4hc8pIDyud-7A92qCyZL6uDPoobE2VoSeH0nlZ5C15PZdEHdPDpbZAv6A7PDo-6Q9Qozl001NPvWjLwVNaxGlEyY4UZ2OnHiVqpZRVBhPqTMAPfRu16Q4oBCfNRlVL24ibW9Ic6oF-r4zrLH0GyJAYufaBpO3vz7Yu9Jy1Oh0dg8e4aYG0OMNn5vIvyUr3EionjGgXN1XnqVfvIqP-Nilw5XVDxJ6FAhWFFRmIJ5A-WPWMSUvXvkWxWEkYPbX03gQR7V2B3JyLC7IA69DmLAPhN3icZuaIRbH3NnPp9Va8a6Q7UntBhqy3vs1yCqO4GcMLQ60RxjO9bAj2ACo7ANE8Pf0tjwxyZTAZ-yzZJluDf6llAEHwQksZzQHHHNiwDrbHbioBoYCyoCIUAGAII2ORs5QMtC32clvMqaDMuZOSn9ScY7liCxBTc7l2a6lkf-ZZbLpoxiLRkV30QeqLpJLAMr13jt6fyVw96dc_MGpzIVY4lAxrZLXIGZtjPoHCY5eSfkQX4k-UPa1Fb4O-fTSM1V0rkbhCPJ3LO6cOL78Ux8qQrWWvHewfSUOBqhc1LD-roJn2uxBvD0Dc0C1FYOeHEShKNs-2a6OG0bn3MJb3bcY_46ZrDsah6AhtfXs265P9X24C5ZtP1pxkWd0eYTP8fC_rUGTFPGCjaXiyNaXPs33Ky4TdSolNVAb5QyLpllou2XFDCcc1K19Vd6_CiALEgI4QmZYnC8L1VDTKRbcgYjXXJjHfModrRseqqrP6oL3o3M2cMIXLnIuMnY0EP9xgWql20JRIKWlfAHWHSseKo3dMg0FVRAz5vBXTOxLObk-iAnG-C9zcDPibyMePWQSZazwV7UmVZe_TlyDxHT081KB3VAVeUVUFf7E_-WW_7kyS76BHLZ81yovCRsVJe-E3aT0hopPUD1IP7lnxWDoTuRtV_1_o-Dl9jKsSoFdXNYr_MILFeQ7gjajK4YeagGVNnJD9qXDJXfWTPKPq1AlxTi6aEwfygIn9MM5KiJ6dpD42IC1LvS7oH6OLIbjJPem9t0d5kqqBYERd52dSL_je9BStBuhBVKsUgaWnHM9kzocosnnLqcAdhUQRoh9e-g1BQOm4SdfLfMbds7P24SPkHBiC70LKwYbfJbUMIIvRwm5s5O3nEmRzhQjZodOrJIaJVL8I4pWZu1bnffXwPpK6mAXbMH68uv36Wg_9D2swqgY5XK0yx_xsnsh61Et8ythMvGrZ75VSGSWrtVxnlEjNnlfwa74wpx0gQL4cWRz8HyX6AzdVenQlDJrP35ORdcpYEcGmR1dkAFPAZslX6iBIgBN1qUPMffK6480kdiCBHenDjx-Z4kLbtM5NMzCqEW3CgKmoVGryFMZjXSwjgqwjZJVK-A_f7BmjxLHeEB13es43PDS4dDvmcgXbvIrIuLfXyIBfT5RfVjVOxpQg-rVM_zoghpNkNCVvMDw3RztUtEnQ_GHFY_w36Z0Ch6k-lDccRPDM7QfU2JX6s1hZ2dPlPPgwthEFlOcwPChtDTQ763DfEh2kChZXGfbmfDeb3LTzXprusLxJvM7sehauj3Ql1OnFDHNzLSSpEkTJIWpOS1wkoQG_EzudjBFNo_e3BCDK5uAe1jPrQissgkoit8w7tp6dUEVv5izM16xeN9XriJ8kOvBHHWm8DqvwjK2ZOF4zRI_ZaG95NAhShTKodz81QPmWnIINgzjqEkEtnaWYoKk_xehyyTMoAzSo97uHrwyvgAkNosAxJi7VApzMjXYPXSDzd09GViZnQjdwt0Q6lVV_3mgo-ZYvVFInYztFKh58hz1vMeDphWxg3vw0TNCDx7TNLZv070Uu20Y12jlB_PWU-vk8L9eajYTtX5vRDpcnQegA3B9IPIgTulo-vZw7Rrw3LXqjcy_W5bpq9DzhjwKxV6EiwNwVDGzMhgTDXwm7hCHHwa2g_32ASNJKTjW9zmLmYombdyHLDB2NwtxfvL4KR6plLmza8hGdwvQ-CIPJI0frnSzb2IOdCszbQj6vLrIox0CoY_3fZj3L9FwkL0cQPXyi7sggceS2QNMAvDGCHhKMHvza3Pu4j3-A37KDHP5uPrApWKGgk5AoWJQbxFB9Y7wbxHB8o3qzJvCsorwBEQIrPP4TgOGjG3LXT9heS2KvwRsQmMHNYDVLs2KToSSQfH5a9B2PV_fQYPFACmqzEqOn020Xmo0kkj6C5P1QefgFMx0O4wD4SEkHJ5Weyldn15C4lvqbLpBftJYThzvAXAC3N44M18QKWMxLqfE_msgwt8RLUeE3jjVGkqBwAsc8dD_jT2QDWcvrIO_ETjdR6QLdNQaEMIsbxPr-a_prTZqw1XmAq_cn5c3FYgJJ0Uf9WUL_GPCYNjRXHh-7_0000]--></g></svg>